<svg width="170" height="40" viewBox="0 0 170 40" fill="none" xmlns="http://www.w3.org/2000/svg">
<path d="M21.869 33.6869H26.377V25.0511C26.024 25.4041 23.5256 27.5495 21.869 28.3371V33.6869ZM36.8866 11.0926V18.9409C35.2572 18.1533 33.4105 17.7188 31.4824 17.7188C29.6629 17.7188 27.8978 18.1533 26.3227 18.8051V11.0926H21.8147V22.0911C21.5703 22.2811 21.3802 22.3898 21.3802 22.3898C20.0495 23.3674 18.3387 23.9649 16.5735 23.9649C12.0112 23.9649 8.37221 20.2444 8.37221 15.7636C8.37221 11.2556 12.147 7.50799 16.7093 7.50799C18.3387 7.50799 19.8051 7.9968 21.0815 8.78434V3.78754C19.7508 3.29872 18.23 3 16.7093 3C9.73003 3 4 8.70287 4 15.7093C4 22.7157 9.64856 28.4185 16.7093 28.4185C18.4201 28.4185 19.8051 28.1198 21.516 27.4409C21.6246 27.3866 21.7604 27.3323 21.9505 27.2508C23.5256 26.4633 26.024 24.2636 26.4585 23.9649C26.5128 23.9649 26.5128 23.9105 26.5128 23.9105C27.8978 22.8243 29.6629 22.1454 31.6182 22.1454C33.6821 22.1454 35.5559 22.9329 37.0224 24.155V33.6326H41.5304V11.0926H36.8866ZM12.3371 16.6054C12.3914 16.4153 12.3371 16.2524 12.3371 16.0623C12.3371 15.6278 12.2827 15.2748 12.2284 14.8403C12.1198 13.8626 12.1198 12.885 12.6629 12.0431C12.7716 11.853 12.9073 11.6901 13.0974 11.5C13.0974 11.5 13.0974 11.5 13.1518 11.5C13.7492 10.9026 14.6725 10.5224 15.7045 10.4681C16.0032 10.4681 16.492 10.468 17.0351 10.6581C17.4697 10.7668 17.8227 10.9026 18.2572 11.147C18.4473 11.2013 18.6102 11.3914 18.746 11.4457C18.9361 11.5543 19.0447 11.6901 19.1805 11.8802C19.4249 12.2332 19.615 12.8035 19.3706 13.2652L19.3163 13.3738L19.262 13.4824V13.238C19.262 13.2923 19.1534 13.4824 19.0719 13.4824C19.0719 13.5911 19.0176 13.6725 19.0176 13.7268C18.9633 13.9169 18.9089 13.9712 18.8275 14.1613V14.2157C19.0176 14.2157 19.0176 14.107 19.0176 14.1613C19.0176 14.2157 18.9089 14.27 18.8275 14.27C18.8275 14.5687 19.1262 14.9489 19.1805 15.0032C19.2891 15.1118 19.4249 15.2476 19.4792 15.3019C19.5879 15.492 19.2348 15.7364 19.1805 15.7907C19.2348 15.8994 19.2891 15.8994 19.2891 16.0351C19.3435 16.1438 19.0447 16.2252 19.099 16.2796C19.1534 16.3339 19.1534 16.524 19.099 16.5783C18.8546 16.7684 18.9089 16.8227 18.9904 17.1214C19.0447 17.4744 18.8818 17.6102 18.5559 17.6645C18.3115 17.7188 17.6326 17.4744 17.3882 17.6102C16.8994 17.9633 16.4649 18.778 17.8227 20.6518C17.9313 20.7604 18.3115 21.1949 18.0671 21.1949C17.0895 21.1949 15.5144 19.131 13.2604 20.4617C12.9617 20.6518 14.238 18.8323 14.4824 17.8546C14.2923 17.8546 14.1294 17.746 13.885 17.5559C13.885 17.6645 13.9936 17.746 14.0751 17.8546C14.0751 17.8546 14.0208 17.8546 13.9665 17.8546C13.9121 17.8546 13.9121 17.8546 13.8578 17.8546C13.6134 17.8546 13.3147 17.8003 13.0703 17.6645C12.9617 17.6102 12.8802 17.4201 12.8259 17.3115C12.8259 17.2572 12.7716 17.0671 12.7716 16.9585C12.7716 17.0128 12.7173 17.1486 12.5815 17.2029C12.4457 17.2572 12.3371 17.3115 12.147 17.2572C12.2284 17.0942 12.2827 16.8498 12.3371 16.6054Z" fill="#1D2130"/>
<path d="M55.4344 18.1262C55.6245 17.8275 55.7875 17.5831 56.222 17.5831C56.6565 17.5831 57.1453 17.9361 57.1453 18.4249C57.1453 18.615 57.1453 18.7236 57.0367 18.9137C56.4935 20.2444 55.0271 21.0319 53.5063 21.0319C51.2523 21.0319 49.6772 19.4026 49.4871 17.2572C49.4328 16.524 49.4328 15.7907 49.4871 15.139C49.6772 13.0208 51.2523 11.3099 53.5063 11.3099C55.0271 11.3099 56.4121 12.0974 57.0367 13.4281C57.091 13.6725 57.1453 13.7811 57.1453 13.9169C57.1453 14.4057 56.6565 14.7588 56.222 14.7588C55.7875 14.7588 55.5431 14.5144 55.4344 14.2157C55.0814 13.4824 54.3482 13.0479 53.5606 13.0479C52.2843 13.0479 51.4424 14.0256 51.3609 15.3019C51.3066 15.845 51.3066 16.4697 51.3609 17.0128C51.4696 18.3435 52.2843 19.2668 53.5606 19.2668C54.4025 19.3482 55.0542 18.8594 55.4344 18.1262ZM60.6485 14.1885C60.9472 13.9441 61.6261 13.6454 62.3593 13.6454C64.0702 13.6454 65.0207 14.6773 65.0207 16.5511V20.0272C65.0207 20.5703 64.6677 21.0048 64.0974 21.0048C63.6085 21.0048 63.174 20.5703 63.174 20.0272V16.6869C63.174 15.8994 62.6852 15.4105 61.952 15.4105C61.4089 15.4105 60.8657 15.6549 60.567 15.9537V20.0272C60.567 20.516 60.214 20.9505 59.6437 20.9505C59.1549 20.9505 58.7204 20.516 58.7204 20.0272V12.2604C58.7204 11.7173 59.0734 11.3371 59.6437 11.3371C60.1325 11.3371 60.567 11.7716 60.567 12.2604L60.6485 14.1885ZM67.8178 12.9665C67.2747 12.9665 66.8402 12.532 66.8402 11.9888C66.8402 11.4457 67.2747 11.0112 67.8178 11.0112C68.3609 11.0112 68.7955 11.4457 68.7955 11.9888C68.7955 12.532 68.3881 12.9665 67.8178 12.9665ZM68.7411 14.6773V20.0815C68.7411 20.5703 68.3881 21.0048 67.8178 21.0048C67.329 21.0048 66.8945 20.5703 66.8945 20.0815V14.6773C66.8945 14.1342 67.2475 13.754 67.8178 13.754C68.3881 13.6997 68.7411 14.1342 68.7411 14.6773ZM72.5159 12.2875V20.0815C72.5159 20.5703 72.1629 21.0048 71.5926 21.0048C71.1038 21.0048 70.6693 20.5703 70.6693 20.0815V12.3147C70.6693 11.7716 71.0223 11.3914 71.5926 11.3914C72.1357 11.3371 72.5159 11.7444 72.5159 12.2875ZM77.1868 13.6997C77.73 13.6997 78.3546 13.8898 78.7619 14.0527V12.2875C78.7619 11.7444 79.1964 11.3642 79.6852 11.3642C80.174 11.3642 80.6086 11.7987 80.6086 12.2875V19.5927C80.6086 19.8914 80.5542 20.0815 80.3098 20.1901C79.9568 20.4345 78.8434 21.0319 77.5127 21.0319C75.6389 21.0319 74.4712 19.8642 74.3625 18.2348C74.3082 17.746 74.3082 16.9042 74.3625 16.4153C74.444 14.7316 75.4217 13.6997 77.1868 13.6997ZM77.4856 19.3482C77.9744 19.3482 78.5718 19.1038 78.7619 18.9137V15.7636C78.5175 15.655 77.9744 15.4105 77.3769 15.4105C76.5351 15.4105 76.1006 15.8994 76.0462 16.6869C76.0462 16.9856 76.0462 17.6102 76.0462 17.9633C76.1006 18.8594 76.6437 19.3482 77.4856 19.3482ZM86.8002 14.7316C86.8002 15.0847 86.5015 15.5735 85.9584 15.5735C85.6597 15.5735 85.3609 15.4649 84.9264 15.4649C84.4919 15.4649 84.2475 15.7093 84.2475 16.3067V20.0815C84.2475 20.5703 83.8945 21.0048 83.3242 21.0048C82.8354 21.0048 82.4009 20.5703 82.4009 20.0815V15.9537C82.4009 14.5687 83.1884 13.6454 84.7635 13.6454C85.198 13.6454 85.6868 13.6997 85.9312 13.754C86.4744 13.9441 86.8002 14.2428 86.8002 14.7316ZM93.7795 17.0943C93.7795 17.6374 93.5351 18.0176 92.8561 18.0176H89.2715V18.1262C89.2715 18.968 89.9504 19.4026 90.7923 19.4026C91.2811 19.4026 91.7699 19.2939 92.2587 19.1038C92.9919 18.8594 93.4264 19.3482 93.4264 19.8371C93.4264 20.0815 93.3178 20.3802 92.9919 20.5703C92.5031 20.869 91.6613 21.0591 90.7923 21.0591C88.9728 21.0591 87.6964 19.8914 87.5606 18.2077C87.5063 17.6645 87.5606 16.9313 87.5606 16.4968C87.7507 14.7316 88.9456 13.6454 90.7108 13.6454C92.5303 13.6454 93.7523 14.8674 93.7523 16.7412C93.7795 16.7412 93.7795 17.0943 93.7795 17.0943ZM91.9057 16.7412C92.0143 16.7412 92.0143 16.6869 92.0143 16.5511C92.0686 15.7636 91.5255 15.2204 90.6836 15.2204C89.706 15.2204 89.2986 15.8179 89.2986 16.7412H91.9057ZM101.546 20.0815C101.546 20.5703 101.193 21.0048 100.623 21.0048C100.134 21.0048 99.6996 20.5703 99.6996 20.0815V16.6869C99.6996 15.845 99.1022 15.4105 98.4232 15.4105C97.8801 15.4105 97.3913 15.6006 97.0926 15.7093V20.0272C97.0926 20.516 96.7395 20.9505 96.1693 20.9505C95.6804 20.9505 95.2459 20.516 95.2459 20.0272V15.0304C95.2459 14.7316 95.3546 14.5415 95.5447 14.3514C95.9792 14.0527 96.9296 13.6182 98.3961 13.6182C100.406 13.6182 101.438 14.6502 101.438 16.524L101.546 20.0815ZM104.533 12.9665C104.533 13.4553 104.479 14.0527 104.18 14.5415C103.99 14.8403 103.692 15.0847 103.339 15.0847C102.904 15.0847 102.605 14.7316 102.605 14.3514C102.605 13.9169 102.958 13.754 102.958 13.0208V12.2332C102.958 11.7987 103.311 11.4457 103.746 11.4457C104.18 11.4457 104.533 11.7987 104.533 12.2332C104.533 12.2332 104.533 12.9665 104.533 12.9665ZM110.725 18.7508C110.725 20.2716 109.503 21.0591 107.928 21.0591C106.652 21.0591 105.864 20.7061 105.375 20.2716C105.077 20.0272 104.941 19.484 105.185 19.1853C105.43 18.8323 105.918 18.7508 106.353 18.9952C106.787 19.2396 107.331 19.4297 107.928 19.4297C108.607 19.4297 108.96 19.1853 108.96 18.8323C108.96 18.5335 108.716 18.3435 108.172 18.2348C107.684 18.1262 107.684 18.1262 107.195 17.9904C106.109 17.6917 105.24 17.0671 105.24 15.9265C105.24 14.4601 106.407 13.6725 107.982 13.6725C108.824 13.6725 109.693 13.9169 110.182 14.27C110.535 14.5687 110.535 15.1118 110.236 15.492C109.992 15.7907 109.503 15.7907 109.069 15.6006C108.716 15.4105 108.281 15.3019 107.901 15.3019C107.222 15.3019 106.923 15.5463 106.923 15.845C106.923 16.1438 107.113 16.3339 107.711 16.4425L108.688 16.6869C110.073 16.9856 110.725 17.6374 110.725 18.7508ZM115.586 12.369C115.586 11.8259 116.021 11.4457 116.51 11.4457C117.053 11.4457 117.433 11.8802 117.433 12.369V15.3562H121.696V12.369C121.696 11.8259 122.131 11.4457 122.62 11.4457C123.163 11.4457 123.543 11.8802 123.543 12.369V20.0272C123.543 20.5703 123.19 21.0048 122.62 21.0048C122.131 21.0048 121.696 20.5703 121.696 20.0272V17.0943H117.433V20C117.433 20.5431 117.08 20.9233 116.51 20.9233C116.021 20.9233 115.586 20.4888 115.586 20V12.369ZM128.486 21.0591C126.72 21.0591 125.39 19.9728 125.254 18.3163C125.2 17.7732 125.2 16.9313 125.254 16.4425C125.363 14.8674 126.72 13.6997 128.486 13.6997C130.251 13.6997 131.527 14.7859 131.717 16.4425C131.771 16.9856 131.771 17.7732 131.717 18.3163C131.581 19.8914 130.305 21.0591 128.486 21.0591ZM129.952 16.6869C129.898 15.8994 129.409 15.4105 128.567 15.4105C127.725 15.4105 127.236 15.9537 127.101 16.6869C127.101 17.0399 127.101 17.6645 127.101 18.0176C127.155 18.8051 127.698 19.2939 128.567 19.2939C129.436 19.2939 129.898 18.7508 129.952 18.0176C129.952 17.7188 129.952 17.0399 129.952 16.6869ZM138.696 18.7508C138.696 20.2716 137.474 21.0591 135.899 21.0591C134.623 21.0591 133.835 20.7061 133.347 20.2716C133.048 20.0272 132.912 19.484 133.156 19.1853C133.401 18.8323 133.89 18.7508 134.324 18.9952C134.759 19.2396 135.302 19.4297 135.899 19.4297C136.578 19.4297 136.931 19.1853 136.931 18.8323C136.931 18.5335 136.687 18.3435 136.144 18.2348C135.655 18.1262 135.655 18.1262 135.166 17.9904C134.08 17.6917 133.211 17.0671 133.211 15.9265C133.211 14.4601 134.379 13.6725 135.954 13.6725C136.795 13.6725 137.664 13.9169 138.153 14.27C138.506 14.5687 138.506 15.1118 138.208 15.492C137.963 15.7907 137.474 15.7907 137.04 15.6006C136.687 15.4105 136.252 15.3019 135.872 15.3019C135.193 15.3019 134.894 15.5463 134.894 15.845C134.894 16.1438 135.085 16.3339 135.682 16.4425L136.66 16.6869C138.017 16.9856 138.696 17.6374 138.696 18.7508ZM143.422 21.0591C142.824 21.0591 142.39 20.9505 141.901 20.7061V22.7157C141.901 23.2588 141.466 23.639 140.978 23.639C140.489 23.639 140.054 23.2045 140.054 22.7157V15.0575C140.054 14.8674 140.109 14.7045 140.299 14.623C140.733 14.3243 141.819 13.7811 143.204 13.7811C145.024 13.7811 146.192 14.9489 146.355 16.5783C146.409 17.0671 146.409 17.9089 146.355 18.3978C146.3 19.9457 145.187 21.0591 143.422 21.0591ZM143.259 15.4105C142.77 15.4105 142.172 15.655 141.928 15.845V18.9952C142.172 19.1038 142.716 19.3482 143.259 19.3482C144.182 19.3482 144.535 18.8594 144.589 18.0719C144.589 17.7732 144.589 17.1486 144.589 16.7955C144.535 15.8722 144.101 15.4105 143.259 15.4105ZM149.097 12.9665C148.554 12.9665 148.12 12.532 148.12 11.9888C148.12 11.4457 148.554 11.0112 149.097 11.0112C149.641 11.0112 150.075 11.4457 150.075 11.9888C150.048 12.532 149.641 12.9665 149.097 12.9665ZM149.994 14.6773V20.0815C149.994 20.5703 149.64 21.0048 149.07 21.0048C148.581 21.0048 148.147 20.5703 148.147 20.0815V14.6773C148.147 14.1342 148.5 13.754 149.07 13.754C149.559 13.6997 149.994 14.1342 149.994 14.6773ZM154.311 21.0591C152.682 21.0591 151.867 19.8914 151.867 18.4521V13.1566C151.867 12.6134 152.22 12.2332 152.791 12.2332C153.279 12.2332 153.714 12.6677 153.714 13.1566V14.0799H155.425C155.859 14.0799 156.267 14.4329 156.267 14.8674C156.267 15.3019 155.914 15.655 155.425 15.655H153.714V18.3978C153.714 19.0767 154.013 19.3754 154.556 19.3754C154.855 19.3754 155.153 19.3211 155.398 19.2668C156.077 19.0767 156.484 19.5112 156.484 20.0543C156.484 20.353 156.375 20.6518 155.941 20.8419C155.479 20.9776 154.855 21.0591 154.311 21.0591ZM163.3 19.647C163.3 19.9457 163.246 20.1358 163.002 20.2444C162.648 20.4888 161.671 20.9776 160.204 20.9776C158.249 20.9776 157.407 19.8914 157.407 18.615C157.407 17.4473 158.195 16.4153 160.15 16.4153C160.748 16.4153 161.128 16.4697 161.617 16.6054V16.2524C161.617 15.5735 161.263 15.2204 160.34 15.2204C159.851 15.2204 159.363 15.3291 159.064 15.4649C158.276 15.7093 157.842 15.3562 157.842 14.7859C157.842 14.4872 157.95 14.1885 158.439 13.9984C158.792 13.8083 159.607 13.6454 160.394 13.6454C162.268 13.6454 163.382 14.4872 163.382 16.3882V19.6741H163.3V19.647ZM161.617 19.1581V17.9361C161.182 17.8275 160.775 17.6917 160.286 17.6917C159.553 17.6917 159.118 18.0447 159.118 18.5335C159.118 19.131 159.607 19.4569 160.34 19.4569C161.046 19.4569 161.426 19.2939 161.617 19.1581ZM166.966 12.2875V20.0815C166.966 20.5703 166.613 21.0048 166.043 21.0048C165.554 21.0048 165.12 20.5703 165.12 20.0815V12.3147C165.12 11.7716 165.473 11.3914 166.043 11.3914C166.532 11.3371 166.966 11.7444 166.966 12.2875ZM52.7459 34.4201C50.9808 34.4201 49.6501 33.3339 49.5143 31.6773C49.5143 31.1342 49.5143 30.3466 49.5143 29.8035C49.6229 28.2284 50.9808 27.0607 52.7459 27.0607C54.5111 27.0607 55.7875 28.147 55.9776 29.8035C56.0319 30.3466 56.0319 31.1342 55.9776 31.6773C55.7875 33.2524 54.5111 34.4201 52.7459 34.4201ZM54.1581 30.0479C54.1038 29.2604 53.6149 28.7716 52.7731 28.7716C51.9312 28.7716 51.4424 29.3147 51.3066 30.0479C51.3066 30.401 51.3066 31.0256 51.3066 31.3786C51.3609 32.1661 51.9041 32.6549 52.7731 32.6549C53.6421 32.6549 54.1038 32.1118 54.1581 31.3786C54.2124 31.0799 54.2124 30.401 54.1581 30.0479ZM58.1772 27.0607C58.1772 25.4313 59.1006 24.5623 60.5399 24.5623C61.0287 24.5623 61.5718 24.6166 61.8705 24.7524C62.305 24.861 62.5494 25.1869 62.5494 25.5942C62.5494 26.0016 62.2507 26.3818 61.7076 26.3818C61.4089 26.3818 61.1101 26.2732 60.6756 26.2732C60.1868 26.2732 59.8881 26.5719 59.8881 27.115V27.4137H61.4632C61.8977 27.4137 62.2507 27.7125 62.2507 28.2013C62.2507 28.6358 61.8977 28.9888 61.4632 28.9888H59.8881V33.4153C59.8881 33.9585 59.5351 34.393 58.9648 34.393C58.476 34.393 58.0415 33.9585 58.0415 33.4153V28.9888H57.7427C57.2539 28.9888 56.9009 28.6358 56.9009 28.2013C56.9009 27.7125 57.2539 27.4137 57.7427 27.4137H58.0415V27.0607C58.0415 27.0607 58.1772 27.0607 58.1772 27.0607ZM69.3386 31.27V33.4696C69.3386 33.9585 68.9041 34.4473 68.4153 34.4473C67.9264 34.4473 67.4919 34.0128 67.4919 33.4696V26.0559C67.4919 25.377 67.9264 24.8339 68.714 24.8339H71.3753C73.1405 24.8339 74.6613 26.0016 74.6613 27.984C74.6613 29.9665 73.1948 31.1342 71.2667 31.1342H69.3114V31.27H69.3386ZM71.2395 29.4505C72.3258 29.4505 72.8146 28.9073 72.8146 28.0655C72.8146 27.1422 72.3258 26.6805 71.2395 26.6805H69.2843V29.4776C69.2843 29.4505 71.2395 29.4505 71.2395 29.4505ZM77.8657 27.5495C78.1645 27.3051 78.8434 27.0064 79.5766 27.0064C81.2875 27.0064 82.2379 28.0383 82.2379 29.9121V33.3882C82.2379 33.9313 81.8849 34.3658 81.3146 34.3658C80.8258 34.3658 80.3913 33.9313 80.3913 33.3882V30.0479C80.3913 29.2604 79.9025 28.7716 79.1693 28.7716C78.6261 28.7716 78.083 29.016 77.7843 29.3147V33.3882C77.7843 33.877 77.4312 34.3115 76.8609 34.3115C76.3721 34.3115 75.9376 33.877 75.9376 33.3882V25.6214C75.9376 25.0783 76.2907 24.6981 76.8609 24.6981C77.3498 24.6981 77.7843 25.1326 77.7843 25.6214L77.8657 27.5495ZM85.0351 26.3275C84.4919 26.3275 84.0574 25.893 84.0574 25.3498C84.0574 24.8067 84.4919 24.3722 85.0351 24.3722C85.5782 24.3722 86.0127 24.8067 86.0127 25.3498C86.0127 25.9201 85.5782 26.3275 85.0351 26.3275ZM85.9312 28.0383V33.4425C85.9312 33.9313 85.5782 34.3658 85.0079 34.3658C84.5191 34.3658 84.0846 33.9313 84.0846 33.4425V28.0383C84.0846 27.4952 84.4376 27.115 85.0079 27.115C85.5239 27.115 85.9312 27.4952 85.9312 28.0383ZM89.706 25.6757V33.4425C89.706 33.9313 89.353 34.3658 88.7827 34.3658C88.2938 34.3658 87.8593 33.9313 87.8593 33.4425V25.6757C87.8593 25.1326 88.2124 24.7524 88.7827 24.7524C89.353 24.6981 89.706 25.1326 89.706 25.6757ZM97.3098 33.0351C97.3098 33.3339 97.2555 33.524 97.0111 33.6326C96.6581 33.877 95.6804 34.3658 94.214 34.3658C92.2587 34.3658 91.4169 33.2796 91.4169 32.0032C91.4169 30.8355 92.2044 29.8035 94.1597 29.8035C94.7571 29.8035 95.1373 29.8578 95.6261 29.9936V29.6406C95.6261 28.9617 95.2731 28.6086 94.3498 28.6086C93.8609 28.6086 93.3721 28.7173 93.0734 28.853C92.2859 29.0974 91.8514 28.7444 91.8514 28.1741C91.8514 27.8754 91.96 27.5767 92.4488 27.3866C92.8018 27.1965 93.6165 27.0335 94.4041 27.0335C96.2779 27.0335 97.3913 27.8754 97.3913 29.7764L97.3098 33.0351ZM95.5447 32.5463V31.3243C95.1101 31.2157 94.7028 31.0799 94.214 31.0799C93.4807 31.0799 93.0462 31.4329 93.0462 31.9217C93.0462 32.5192 93.5351 32.845 94.2683 32.845C95.0015 32.8994 95.4089 32.655 95.5447 32.5463ZM101.872 27.0607C102.415 27.0607 103.04 27.2508 103.447 27.4137V25.6486C103.447 25.1054 103.882 24.7252 104.371 24.7252C104.859 24.7252 105.294 25.1597 105.294 25.6486V32.9537C105.294 33.2524 105.24 33.4425 104.995 33.5511C104.642 33.7955 103.529 34.393 102.198 34.393C100.324 34.393 99.1565 33.2252 99.0478 31.5958C98.9935 31.107 98.9935 30.2652 99.0478 29.7764C99.075 28.0927 100.107 27.0607 101.872 27.0607ZM102.117 32.7093C102.605 32.7093 103.203 32.4649 103.393 32.2748V29.1246C103.148 29.016 102.605 28.7716 102.008 28.7716C101.166 28.7716 100.732 29.2604 100.677 30.0479C100.677 30.3466 100.677 30.9712 100.677 31.3243C100.759 32.2204 101.248 32.7093 102.117 32.7093ZM113.224 30.4824C113.224 31.0256 112.979 31.4058 112.3 31.4058H108.716V31.5144C108.716 32.3562 109.394 32.7907 110.236 32.7907C110.725 32.7907 111.214 32.6821 111.703 32.492C112.436 32.2476 112.871 32.7364 112.871 33.2252C112.871 33.4696 112.762 33.7684 112.436 33.9585C111.947 34.2572 111.105 34.4473 110.236 34.4473C108.417 34.4473 107.14 33.2796 107.005 31.5958C106.95 31.0527 107.005 30.3195 107.005 29.885C107.195 28.1198 108.39 27.0335 110.155 27.0335C111.974 27.0335 113.196 28.2556 113.196 30.1294V30.4824H113.224ZM111.35 30.1022C111.458 30.1022 111.458 30.0479 111.458 29.9121C111.513 29.1246 110.97 28.5815 110.128 28.5815C109.15 28.5815 108.743 29.1789 108.743 30.1022H111.35ZM116.618 25.6757V33.4425C116.618 33.9313 116.265 34.3658 115.695 34.3658C115.206 34.3658 114.771 33.9313 114.771 33.4425V25.6757C114.771 25.1326 115.125 24.7524 115.695 24.7524C116.211 24.6981 116.618 25.1326 116.618 25.6757ZM121.805 34.4201C121.208 34.4201 120.773 34.3115 120.284 34.0671V36.0767C120.284 36.6198 119.85 37 119.361 37C118.872 37 118.438 36.5655 118.438 36.0767V28.4185C118.438 28.2284 118.492 28.0655 118.682 27.984C119.117 27.6853 120.203 27.1422 121.588 27.1422C123.407 27.1422 124.575 28.3099 124.738 29.9393C124.792 30.4281 124.792 31.27 124.738 31.7588C124.656 33.3339 123.625 34.4201 121.805 34.4201ZM121.615 28.7716C121.126 28.7716 120.529 29.016 120.284 29.2061V32.3562C120.529 32.4649 121.072 32.7093 121.615 32.7093C122.538 32.7093 122.891 32.2204 122.946 31.4329C122.946 31.1342 122.946 30.5096 122.946 30.1566C122.946 29.2604 122.457 28.7716 121.615 28.7716ZM128.295 27.5495C128.594 27.3051 129.273 27.0064 130.006 27.0064C131.717 27.0064 132.668 28.0383 132.668 29.9121V33.3882C132.668 33.9313 132.315 34.3658 131.744 34.3658C131.256 34.3658 130.821 33.9313 130.821 33.3882V30.0479C130.821 29.2604 130.332 28.7716 129.599 28.7716C129.056 28.7716 128.513 29.016 128.214 29.3147V33.3882C128.214 33.877 127.861 34.3115 127.291 34.3115C126.802 34.3115 126.367 33.877 126.367 33.3882V25.6214C126.367 25.0783 126.72 24.6981 127.291 24.6981C127.779 24.6981 128.214 25.1326 128.214 25.6214V27.5767H128.295V27.5495ZM135.519 26.3275C134.976 26.3275 134.541 25.893 134.541 25.3498C134.541 24.8067 134.976 24.3722 135.519 24.3722C136.062 24.3722 136.497 24.8067 136.497 25.3498C136.442 25.9201 136.008 26.3275 135.519 26.3275ZM136.388 28.0383V33.4425C136.388 33.9313 136.035 34.3658 135.465 34.3658C134.976 34.3658 134.541 33.9313 134.541 33.4425V28.0383C134.541 27.4952 134.894 27.115 135.465 27.115C136.008 27.115 136.388 27.4952 136.388 28.0383ZM144.046 33.0351C144.046 33.3339 143.992 33.524 143.748 33.6326C143.394 33.877 142.417 34.3658 140.95 34.3658C138.995 34.3658 138.153 33.2796 138.153 32.0032C138.153 30.8355 138.941 29.8035 140.896 29.8035C141.494 29.8035 141.874 29.8578 142.363 29.9936V29.6406C142.363 28.9617 142.01 28.6086 141.086 28.6086C140.597 28.6086 140.109 28.7173 139.81 28.853C139.022 29.0974 138.588 28.7444 138.588 28.1741C138.588 27.8754 138.696 27.5767 139.185 27.3866C139.538 27.1965 140.353 27.0335 141.14 27.0335C143.014 27.0335 144.128 27.8754 144.128 29.7764V33.0623H144.046V33.0351ZM142.281 32.5463V31.3243C141.847 31.2157 141.439 31.0799 140.95 31.0799C140.217 31.0799 139.783 31.4329 139.783 31.9217C139.783 32.5192 140.271 32.845 141.005 32.845C141.738 32.8994 142.145 32.655 142.281 32.5463Z" fill="#1D2130"/>
<path d="M146.056 29.5048C145.377 29.5048 144.888 29.016 144.888 28.4728C144.888 28.3642 144.888 28.2284 144.888 28.1198C144.888 27.5224 145.431 27.0879 146.056 27.0879C146.681 27.0879 147.224 27.5224 147.224 28.1198C147.224 28.2284 147.224 28.3642 147.224 28.4728C147.196 29.0703 146.653 29.5048 146.056 29.5048ZM146.952 28.0927C146.898 27.6038 146.518 27.2508 146.029 27.2508C145.54 27.2508 145.187 27.5495 145.105 28.0927C145.105 28.2013 145.105 28.3371 145.105 28.4457C145.16 28.9345 145.54 29.2875 146.029 29.2875C146.518 29.2875 146.871 28.9888 146.952 28.4457C146.952 28.3371 146.952 28.2284 146.952 28.0927ZM146.056 28.4728C146.056 28.4185 146.002 28.4185 146.002 28.4185H145.811V28.7716C145.811 28.8259 145.757 28.8802 145.703 28.8802C145.649 28.8802 145.594 28.8259 145.594 28.7716V27.7396C145.594 27.6853 145.649 27.631 145.784 27.631H146.219C146.463 27.631 146.708 27.7396 146.708 27.984C146.708 28.1741 146.599 28.2827 146.409 28.3371L146.708 28.6901L146.762 28.7444C146.762 28.7987 146.708 28.853 146.653 28.853C146.599 28.853 146.599 28.853 146.599 28.7987L146.056 28.4728ZM146.11 28.2284C146.3 28.2284 146.355 28.1741 146.355 28.0383C146.355 27.9297 146.3 27.8482 146.11 27.8482H145.811V28.2013H146.11V28.2284Z" fill="#1D2130"/>
</svg>
