<svg width="242" height="37" viewBox="0 0 242 37" fill="none" xmlns="http://www.w3.org/2000/svg">
<path d="M40.0328 10.2173H38.439C38.3936 9.95597 38.3098 9.72443 38.1876 9.52273C38.0654 9.31818 37.9134 9.14489 37.7316 9.00284C37.5498 8.8608 37.3424 8.75426 37.1095 8.68324C36.8794 8.60938 36.6308 8.57244 36.3637 8.57244C35.8893 8.57244 35.4688 8.69176 35.1024 8.9304C34.7359 9.16619 34.449 9.51278 34.2416 9.97017C34.0342 10.4247 33.9305 10.9801 33.9305 11.6364C33.9305 12.304 34.0342 12.8665 34.2416 13.3239C34.4518 13.7784 34.7387 14.1222 35.1024 14.3551C35.4688 14.5852 35.8879 14.7003 36.3595 14.7003C36.6208 14.7003 36.8651 14.6662 37.0924 14.598C37.3225 14.527 37.5285 14.4233 37.7103 14.2869C37.895 14.1506 38.0498 13.983 38.1748 13.7841C38.3026 13.5852 38.3907 13.358 38.439 13.1023L40.0328 13.1108C39.9731 13.5256 39.8438 13.9148 39.645 14.2784C39.449 14.642 39.1919 14.9631 38.8737 15.2415C38.5555 15.517 38.1833 15.733 37.7572 15.8892C37.3311 16.0426 36.858 16.1193 36.3382 16.1193C35.5711 16.1193 34.8865 15.9418 34.2842 15.5866C33.6819 15.2315 33.2075 14.7188 32.8609 14.0483C32.5143 13.3778 32.341 12.5739 32.341 11.6364C32.341 10.696 32.5157 9.89205 32.8651 9.22443C33.2146 8.55398 33.6904 8.04119 34.2927 7.68608C34.895 7.33097 35.5768 7.15341 36.3382 7.15341C36.824 7.15341 37.2757 7.22159 37.6933 7.35795C38.1109 7.49432 38.483 7.6946 38.8098 7.95881C39.1365 8.22017 39.4049 8.54119 39.6152 8.92188C39.8282 9.29972 39.9674 9.73153 40.0328 10.2173ZM42.835 12.1648V16H41.2924V7.27273H42.8009V10.5668H42.8776C43.031 10.1974 43.2682 9.90625 43.5893 9.69318C43.9131 9.47727 44.3251 9.36932 44.8251 9.36932C45.2796 9.36932 45.6759 9.46449 46.014 9.65483C46.352 9.84517 46.6134 10.1236 46.7981 10.4901C46.9856 10.8565 47.0793 11.304 47.0793 11.8324V16H45.5367V12.071C45.5367 11.6307 45.4231 11.2884 45.1958 11.044C44.9714 10.7969 44.656 10.6733 44.2498 10.6733C43.977 10.6733 43.7327 10.733 43.5168 10.8523C43.3037 10.9687 43.1361 11.1378 43.014 11.3594C42.8947 11.581 42.835 11.8494 42.835 12.1648ZM48.5318 16V9.45455H50.0744V16H48.5318ZM49.3073 8.52557C49.063 8.52557 48.8528 8.4446 48.6766 8.28267C48.5005 8.1179 48.4124 7.92045 48.4124 7.69034C48.4124 7.45739 48.5005 7.25994 48.6766 7.09801C48.8528 6.93324 49.063 6.85085 49.3073 6.85085C49.5545 6.85085 49.7647 6.93324 49.938 7.09801C50.1141 7.25994 50.2022 7.45739 50.2022 7.69034C50.2022 7.92045 50.1141 8.1179 49.938 8.28267C49.7647 8.4446 49.5545 8.52557 49.3073 8.52557ZM53.0833 7.27273V16H51.5407V7.27273H53.0833ZM56.9785 16.1151C56.4643 16.1151 56.0041 15.983 55.5979 15.7188C55.1916 15.4545 54.8706 15.071 54.6348 14.5682C54.399 14.0653 54.2811 13.4545 54.2811 12.7358C54.2811 12.0085 54.4004 11.3949 54.6391 10.8949C54.8805 10.392 55.2058 10.0128 55.6149 9.7571C56.024 9.49858 56.48 9.36932 56.9828 9.36932C57.3663 9.36932 57.6817 9.43466 57.9288 9.56534C58.176 9.69318 58.372 9.84801 58.5169 10.0298C58.6618 10.2088 58.774 10.3778 58.8535 10.5369H58.9175V7.27273H60.4643V16H58.9473V14.9688H58.8535C58.774 15.1278 58.6589 15.2969 58.5084 15.4759C58.3578 15.652 58.1589 15.8026 57.9118 15.9276C57.6646 16.0526 57.3535 16.1151 56.9785 16.1151ZM57.4089 14.8494C57.7356 14.8494 58.0141 14.7614 58.2442 14.5852C58.4743 14.4062 58.649 14.1577 58.7683 13.8395C58.8876 13.5213 58.9473 13.1506 58.9473 12.7273C58.9473 12.304 58.8876 11.9361 58.7683 11.6236C58.6518 11.3111 58.4785 11.0682 58.2484 10.8949C58.0212 10.7216 57.7413 10.6349 57.4089 10.6349C57.0652 10.6349 56.7783 10.7244 56.5481 10.9034C56.318 11.0824 56.1447 11.3295 56.0283 11.6449C55.9118 11.9602 55.8535 12.321 55.8535 12.7273C55.8535 13.1364 55.9118 13.5014 56.0283 13.8224C56.1476 14.1406 56.3223 14.392 56.5524 14.5767C56.7854 14.7585 57.0709 14.8494 57.4089 14.8494ZM63.5308 12.1648V16H61.9882V7.27273H63.4967V10.5668H63.5734C63.7268 10.1974 63.964 9.90625 64.285 9.69318C64.6089 9.47727 65.0208 9.36932 65.5208 9.36932C65.9754 9.36932 66.3717 9.46449 66.7098 9.65483C67.0478 9.84517 67.3092 10.1236 67.4938 10.4901C67.6813 10.8565 67.7751 11.304 67.7751 11.8324V16H66.2325V12.071C66.2325 11.6307 66.1188 11.2884 65.8916 11.044C65.6671 10.7969 65.3518 10.6733 64.9455 10.6733C64.6728 10.6733 64.4285 10.733 64.2126 10.8523C63.9995 10.9687 63.8319 11.1378 63.7098 11.3594C63.5904 11.581 63.5308 11.8494 63.5308 12.1648ZM72.0826 16.1278C71.4434 16.1278 70.8895 15.9872 70.4207 15.706C69.952 15.4247 69.5883 15.0312 69.3298 14.5256C69.0741 14.0199 68.9463 13.429 68.9463 12.7528C68.9463 12.0767 69.0741 11.4844 69.3298 10.9759C69.5883 10.4673 69.952 10.0724 70.4207 9.79119C70.8895 9.50994 71.4434 9.36932 72.0826 9.36932C72.7219 9.36932 73.2758 9.50994 73.7446 9.79119C74.2133 10.0724 74.5755 10.4673 74.8312 10.9759C75.0898 11.4844 75.219 12.0767 75.219 12.7528C75.219 13.429 75.0898 14.0199 74.8312 14.5256C74.5755 15.0312 74.2133 15.4247 73.7446 15.706C73.2758 15.9872 72.7219 16.1278 72.0826 16.1278ZM72.0912 14.892C72.4378 14.892 72.7275 14.7969 72.9605 14.6065C73.1934 14.4134 73.3667 14.1548 73.4804 13.831C73.5969 13.5071 73.6551 13.1463 73.6551 12.7486C73.6551 12.348 73.5969 11.9858 73.4804 11.6619C73.3667 11.3352 73.1934 11.0753 72.9605 10.8821C72.7275 10.6889 72.4378 10.5923 72.0912 10.5923C71.7361 10.5923 71.4406 10.6889 71.2048 10.8821C70.9719 11.0753 70.7971 11.3352 70.6807 11.6619C70.567 11.9858 70.5102 12.348 70.5102 12.7486C70.5102 13.1463 70.567 13.5071 70.6807 13.831C70.7971 14.1548 70.9719 14.4134 71.2048 14.6065C71.4406 14.7969 71.7361 14.892 72.0912 14.892ZM79.2634 16.1278C78.6242 16.1278 78.0702 15.9872 77.6015 15.706C77.1327 15.4247 76.7691 15.0312 76.5106 14.5256C76.2549 14.0199 76.1271 13.429 76.1271 12.7528C76.1271 12.0767 76.2549 11.4844 76.5106 10.9759C76.7691 10.4673 77.1327 10.0724 77.6015 9.79119C78.0702 9.50994 78.6242 9.36932 79.2634 9.36932C79.9026 9.36932 80.4566 9.50994 80.9254 9.79119C81.3941 10.0724 81.7563 10.4673 82.012 10.9759C82.2705 11.4844 82.3998 12.0767 82.3998 12.7528C82.3998 13.429 82.2705 14.0199 82.012 14.5256C81.7563 15.0312 81.3941 15.4247 80.9254 15.706C80.4566 15.9872 79.9026 16.1278 79.2634 16.1278ZM79.272 14.892C79.6185 14.892 79.9083 14.7969 80.1413 14.6065C80.3742 14.4134 80.5475 14.1548 80.6612 13.831C80.7776 13.5071 80.8359 13.1463 80.8359 12.7486C80.8359 12.348 80.7776 11.9858 80.6612 11.6619C80.5475 11.3352 80.3742 11.0753 80.1413 10.8821C79.9083 10.6889 79.6185 10.5923 79.272 10.5923C78.9168 10.5923 78.6214 10.6889 78.3856 10.8821C78.1526 11.0753 77.9779 11.3352 77.8614 11.6619C77.7478 11.9858 77.691 12.348 77.691 12.7486C77.691 13.1463 77.7478 13.5071 77.8614 13.831C77.9779 14.1548 78.1526 14.4134 78.3856 14.6065C78.6214 14.7969 78.9168 14.892 79.272 14.892ZM86.0181 16.1151C85.5039 16.1151 85.0436 15.983 84.6374 15.7188C84.2311 15.4545 83.9101 15.071 83.6743 14.5682C83.4385 14.0653 83.3206 13.4545 83.3206 12.7358C83.3206 12.0085 83.44 11.3949 83.6786 10.8949C83.9201 10.392 84.2453 10.0128 84.6544 9.7571C85.0635 9.49858 85.5195 9.36932 86.0223 9.36932C86.4059 9.36932 86.7212 9.43466 86.9684 9.56534C87.2155 9.69318 87.4115 9.84801 87.5564 10.0298C87.7013 10.2088 87.8135 10.3778 87.8931 10.5369H87.957V7.27273H89.5039V16H87.9868V14.9688H87.8931C87.8135 15.1278 87.6985 15.2969 87.5479 15.4759C87.3973 15.652 87.1985 15.8026 86.9513 15.9276C86.7042 16.0526 86.3931 16.1151 86.0181 16.1151ZM86.4485 14.8494C86.7752 14.8494 87.0536 14.7614 87.2837 14.5852C87.5138 14.4062 87.6885 14.1577 87.8078 13.8395C87.9272 13.5213 87.9868 13.1506 87.9868 12.7273C87.9868 12.304 87.9272 11.9361 87.8078 11.6236C87.6914 11.3111 87.5181 11.0682 87.288 10.8949C87.0607 10.7216 86.7809 10.6349 86.4485 10.6349C86.1047 10.6349 85.8178 10.7244 85.5877 10.9034C85.3576 11.0824 85.1843 11.3295 85.0678 11.6449C84.9513 11.9602 84.8931 12.321 84.8931 12.7273C84.8931 13.1364 84.9513 13.5014 85.0678 13.8224C85.1871 14.1406 85.3618 14.392 85.5919 14.5767C85.8249 14.7585 86.1104 14.8494 86.4485 14.8494ZM93.9524 16V7.27273H97.2933C97.924 7.27273 98.4482 7.37216 98.8658 7.57102C99.2862 7.76705 99.6002 8.03551 99.8076 8.37642C100.018 8.71733 100.123 9.10369 100.123 9.53551C100.123 9.89062 100.055 10.1946 99.9183 10.4474C99.782 10.6974 99.5987 10.9006 99.3686 11.0568C99.1385 11.2131 98.8814 11.3253 98.5973 11.3935V11.4787C98.907 11.4957 99.2039 11.5909 99.488 11.7642C99.7749 11.9347 100.009 12.1761 100.191 12.4886C100.373 12.8011 100.464 13.179 100.464 13.6222C100.464 14.0739 100.354 14.4801 100.136 14.8409C99.9169 15.1989 99.5874 15.4815 99.147 15.6889C98.7067 15.8963 98.1527 16 97.4851 16H93.9524ZM95.5334 14.679H97.2337C97.8076 14.679 98.2209 14.5696 98.4737 14.3509C98.7294 14.1293 98.8573 13.8452 98.8573 13.4986C98.8573 13.2401 98.7933 13.0071 98.6655 12.7997C98.5377 12.5895 98.3558 12.4247 98.1201 12.3054C97.8843 12.1832 97.603 12.1222 97.2763 12.1222H95.5334V14.679ZM95.5334 10.9844H97.0973C97.3701 10.9844 97.6158 10.9347 97.8345 10.8352C98.0533 10.733 98.2252 10.5895 98.3502 10.4048C98.478 10.2173 98.5419 9.99574 98.5419 9.74006C98.5419 9.40199 98.4226 9.12358 98.184 8.90483C97.9482 8.68608 97.5973 8.5767 97.1314 8.5767H95.5334V10.9844ZM101.651 16V9.45455H103.147V10.5455H103.215C103.334 10.1676 103.539 9.87642 103.829 9.67188C104.121 9.46449 104.455 9.3608 104.83 9.3608C104.915 9.3608 105.01 9.36506 105.115 9.37358C105.223 9.37926 105.313 9.3892 105.384 9.40341V10.8224C105.319 10.7997 105.215 10.7798 105.073 10.7628C104.934 10.7429 104.799 10.733 104.668 10.733C104.387 10.733 104.134 10.794 103.909 10.9162C103.688 11.0355 103.513 11.2017 103.385 11.4148C103.258 11.6278 103.194 11.8736 103.194 12.152V16H101.651ZM108.055 16.1321C107.64 16.1321 107.267 16.0582 106.934 15.9105C106.605 15.7599 106.343 15.5384 106.15 15.2457C105.96 14.9531 105.865 14.5923 105.865 14.1634C105.865 13.794 105.933 13.4886 106.069 13.2472C106.206 13.0057 106.392 12.8125 106.628 12.6676C106.863 12.5227 107.129 12.4134 107.424 12.3395C107.723 12.2628 108.031 12.2074 108.349 12.1733C108.733 12.1335 109.044 12.098 109.282 12.0668C109.521 12.0327 109.694 11.9815 109.802 11.9134C109.913 11.8423 109.968 11.733 109.968 11.5852V11.5597C109.968 11.2386 109.873 10.9901 109.683 10.8139C109.493 10.6378 109.218 10.5497 108.861 10.5497C108.483 10.5497 108.183 10.6321 107.961 10.7969C107.743 10.9616 107.595 11.1562 107.518 11.3807L106.078 11.1761C106.191 10.7784 106.379 10.446 106.64 10.179C106.902 9.90909 107.221 9.70739 107.599 9.57386C107.977 9.4375 108.395 9.36932 108.852 9.36932C109.167 9.36932 109.481 9.40625 109.794 9.48011C110.106 9.55398 110.392 9.67614 110.65 9.84659C110.909 10.0142 111.116 10.2429 111.272 10.5327C111.432 10.8224 111.511 11.1847 111.511 11.6193V16H110.028V15.1009H109.977C109.883 15.2827 109.751 15.4531 109.581 15.6122C109.413 15.7685 109.201 15.8949 108.946 15.9915C108.693 16.0852 108.396 16.1321 108.055 16.1321ZM108.456 14.9986C108.765 14.9986 109.034 14.9375 109.261 14.8153C109.488 14.6903 109.663 14.5256 109.785 14.321C109.91 14.1165 109.973 13.8935 109.973 13.652V12.8807C109.924 12.9205 109.842 12.9574 109.726 12.9915C109.612 13.0256 109.484 13.0554 109.342 13.081C109.2 13.1065 109.059 13.1293 108.92 13.1491C108.781 13.169 108.66 13.1861 108.558 13.2003C108.328 13.2315 108.122 13.2827 107.94 13.3537C107.758 13.4247 107.615 13.5241 107.51 13.652C107.405 13.777 107.352 13.9389 107.352 14.1378C107.352 14.4219 107.456 14.6364 107.663 14.7812C107.87 14.9261 108.135 14.9986 108.456 14.9986ZM112.942 16V9.45455H114.485V16H112.942ZM113.718 8.52557C113.473 8.52557 113.263 8.4446 113.087 8.28267C112.911 8.1179 112.823 7.92045 112.823 7.69034C112.823 7.45739 112.911 7.25994 113.087 7.09801C113.263 6.93324 113.473 6.85085 113.718 6.85085C113.965 6.85085 114.175 6.93324 114.348 7.09801C114.525 7.25994 114.613 7.45739 114.613 7.69034C114.613 7.92045 114.525 8.1179 114.348 8.28267C114.175 8.4446 113.965 8.52557 113.718 8.52557ZM117.494 12.1648V16H115.951V9.45455H117.426V10.5668H117.502C117.653 10.2003 117.893 9.90909 118.222 9.69318C118.555 9.47727 118.965 9.36932 119.454 9.36932C119.906 9.36932 120.299 9.46591 120.634 9.65909C120.972 9.85227 121.234 10.1321 121.418 10.4986C121.606 10.8651 121.698 11.3097 121.695 11.8324V16H120.153V12.071C120.153 11.6335 120.039 11.2912 119.812 11.044C119.587 10.7969 119.276 10.6733 118.879 10.6733C118.609 10.6733 118.369 10.733 118.159 10.8523C117.951 10.9687 117.788 11.1378 117.668 11.3594C117.552 11.581 117.494 11.8494 117.494 12.1648ZM133.539 10.2173H131.945C131.899 9.95597 131.816 9.72443 131.693 9.52273C131.571 9.31818 131.419 9.14489 131.237 9.00284C131.056 8.8608 130.848 8.75426 130.615 8.68324C130.385 8.60938 130.137 8.57244 129.87 8.57244C129.395 8.57244 128.975 8.69176 128.608 8.9304C128.242 9.16619 127.955 9.51278 127.747 9.97017C127.54 10.4247 127.436 10.9801 127.436 11.6364C127.436 12.304 127.54 12.8665 127.747 13.3239C127.958 13.7784 128.245 14.1222 128.608 14.3551C128.975 14.5852 129.394 14.7003 129.865 14.7003C130.127 14.7003 130.371 14.6662 130.598 14.598C130.828 14.527 131.034 14.4233 131.216 14.2869C131.401 14.1506 131.556 13.983 131.681 13.7841C131.808 13.5852 131.897 13.358 131.945 13.1023L133.539 13.1108C133.479 13.5256 133.35 13.9148 133.151 14.2784C132.955 14.642 132.698 14.9631 132.379 15.2415C132.061 15.517 131.689 15.733 131.263 15.8892C130.837 16.0426 130.364 16.1193 129.844 16.1193C129.077 16.1193 128.392 15.9418 127.79 15.5866C127.188 15.2315 126.713 14.7188 126.367 14.0483C126.02 13.3778 125.847 12.5739 125.847 11.6364C125.847 10.696 126.022 9.89205 126.371 9.22443C126.72 8.55398 127.196 8.04119 127.798 7.68608C128.401 7.33097 129.083 7.15341 129.844 7.15341C130.33 7.15341 130.781 7.22159 131.199 7.35795C131.617 7.49432 131.989 7.6946 132.316 7.95881C132.642 8.22017 132.911 8.54119 133.121 8.92188C133.334 9.29972 133.473 9.73153 133.539 10.2173ZM136.682 16.1321C136.267 16.1321 135.893 16.0582 135.561 15.9105C135.231 15.7599 134.97 15.5384 134.777 15.2457C134.587 14.9531 134.491 14.5923 134.491 14.1634C134.491 13.794 134.56 13.4886 134.696 13.2472C134.832 13.0057 135.018 12.8125 135.254 12.6676C135.49 12.5227 135.756 12.4134 136.051 12.3395C136.349 12.2628 136.658 12.2074 136.976 12.1733C137.359 12.1335 137.67 12.098 137.909 12.0668C138.148 12.0327 138.321 11.9815 138.429 11.9134C138.54 11.8423 138.595 11.733 138.595 11.5852V11.5597C138.595 11.2386 138.5 10.9901 138.31 10.8139C138.119 10.6378 137.845 10.5497 137.487 10.5497C137.109 10.5497 136.81 10.6321 136.588 10.7969C136.369 10.9616 136.221 11.1562 136.145 11.3807L134.704 11.1761C134.818 10.7784 135.006 10.446 135.267 10.179C135.528 9.90909 135.848 9.70739 136.226 9.57386C136.604 9.4375 137.021 9.36932 137.479 9.36932C137.794 9.36932 138.108 9.40625 138.42 9.48011C138.733 9.55398 139.018 9.67614 139.277 9.84659C139.535 10.0142 139.743 10.2429 139.899 10.5327C140.058 10.8224 140.138 11.1847 140.138 11.6193V16H138.655V15.1009H138.604C138.51 15.2827 138.378 15.4531 138.207 15.6122C138.04 15.7685 137.828 15.8949 137.572 15.9915C137.319 16.0852 137.023 16.1321 136.682 16.1321ZM137.082 14.9986C137.392 14.9986 137.66 14.9375 137.888 14.8153C138.115 14.6903 138.29 14.5256 138.412 14.321C138.537 14.1165 138.599 13.8935 138.599 13.652V12.8807C138.551 12.9205 138.469 12.9574 138.352 12.9915C138.239 13.0256 138.111 13.0554 137.969 13.081C137.827 13.1065 137.686 13.1293 137.547 13.1491C137.408 13.169 137.287 13.1861 137.185 13.2003C136.954 13.2315 136.748 13.2827 136.567 13.3537C136.385 13.4247 136.241 13.5241 136.136 13.652C136.031 13.777 135.979 13.9389 135.979 14.1378C135.979 14.4219 136.082 14.6364 136.29 14.7812C136.497 14.9261 136.761 14.9986 137.082 14.9986ZM143.111 12.1648V16H141.569V9.45455H143.043V10.5668H143.12C143.27 10.2003 143.511 9.90909 143.84 9.69318C144.172 9.47727 144.583 9.36932 145.072 9.36932C145.523 9.36932 145.917 9.46591 146.252 9.65909C146.59 9.85227 146.851 10.1321 147.036 10.4986C147.224 10.8651 147.316 11.3097 147.313 11.8324V16H145.77V12.071C145.77 11.6335 145.657 11.2912 145.43 11.044C145.205 10.7969 144.894 10.6733 144.496 10.6733C144.226 10.6733 143.986 10.733 143.776 10.8523C143.569 10.9687 143.405 11.1378 143.286 11.3594C143.17 11.581 143.111 11.8494 143.111 12.1648ZM151.616 16.1278C150.963 16.1278 150.402 15.9844 149.933 15.6974C149.467 15.4105 149.108 15.0142 148.855 14.5085C148.605 14 148.48 13.4148 148.48 12.7528C148.48 12.0881 148.608 11.5014 148.864 10.9929C149.119 10.4815 149.48 10.0838 149.946 9.79972C150.415 9.51278 150.969 9.36932 151.608 9.36932C152.139 9.36932 152.609 9.46733 153.018 9.66335C153.43 9.85653 153.758 10.1307 154.003 10.4858C154.247 10.8381 154.386 11.25 154.42 11.7216H152.946C152.886 11.4062 152.744 11.1435 152.52 10.9332C152.298 10.7202 152.001 10.6136 151.629 10.6136C151.314 10.6136 151.037 10.6989 150.798 10.8693C150.56 11.0369 150.374 11.2784 150.24 11.5938C150.109 11.9091 150.044 12.2869 150.044 12.7273C150.044 13.1733 150.109 13.5568 150.24 13.8778C150.371 14.196 150.554 14.4418 150.79 14.6151C151.028 14.7855 151.308 14.8707 151.629 14.8707C151.856 14.8707 152.06 14.8281 152.239 14.7429C152.42 14.6548 152.572 14.5284 152.695 14.3636C152.817 14.1989 152.9 13.9986 152.946 13.7628H154.42C154.383 14.2259 154.247 14.6364 154.011 14.9943C153.775 15.3494 153.454 15.6278 153.048 15.8295C152.642 16.0284 152.165 16.1278 151.616 16.1278ZM158.465 16.1278C157.809 16.1278 157.242 15.9915 156.765 15.7188C156.29 15.4432 155.925 15.054 155.669 14.5511C155.414 14.0455 155.286 13.4503 155.286 12.7656C155.286 12.0923 155.414 11.5014 155.669 10.9929C155.928 10.4815 156.289 10.0838 156.752 9.79972C157.215 9.51278 157.759 9.36932 158.384 9.36932C158.787 9.36932 159.168 9.43466 159.526 9.56534C159.887 9.69318 160.205 9.89205 160.48 10.1619C160.759 10.4318 160.978 10.7756 161.137 11.1932C161.296 11.608 161.375 12.1023 161.375 12.6761V13.1491H156.01V12.1094H159.897C159.894 11.8139 159.83 11.5511 159.705 11.321C159.58 11.0881 159.405 10.9048 159.181 10.7713C158.959 10.6378 158.701 10.571 158.405 10.571C158.09 10.571 157.813 10.6477 157.574 10.8011C157.336 10.9517 157.149 11.1506 157.016 11.3977C156.885 11.642 156.818 11.9105 156.816 12.2031V13.1108C156.816 13.4915 156.885 13.8182 157.024 14.0909C157.164 14.3608 157.358 14.5682 157.608 14.7131C157.858 14.8551 158.151 14.9261 158.486 14.9261C158.711 14.9261 158.914 14.8949 159.095 14.8324C159.277 14.767 159.435 14.6719 159.568 14.5469C159.702 14.4219 159.803 14.267 159.871 14.0824L161.311 14.2443C161.22 14.625 161.047 14.9574 160.791 15.2415C160.539 15.5227 160.215 15.7415 159.82 15.8977C159.425 16.0511 158.973 16.1278 158.465 16.1278ZM162.56 16V9.45455H164.056V10.5455H164.124C164.244 10.1676 164.448 9.87642 164.738 9.67188C165.031 9.46449 165.364 9.3608 165.739 9.3608C165.825 9.3608 165.92 9.36506 166.025 9.37358C166.133 9.37926 166.222 9.3892 166.293 9.40341V10.8224C166.228 10.7997 166.124 10.7798 165.982 10.7628C165.843 10.7429 165.708 10.733 165.577 10.733C165.296 10.733 165.043 10.794 164.819 10.9162C164.597 11.0355 164.423 11.2017 164.295 11.4148C164.167 11.6278 164.103 11.8736 164.103 12.152V16H162.56ZM171.244 16H169.556L172.629 7.27273H174.58L177.657 16H175.97L173.639 9.0625H173.57L171.244 16ZM171.299 12.5781H175.901V13.848H171.299V12.5781ZM179.149 16L177.299 9.45455H178.872L180.022 14.0568H180.082L181.258 9.45455H182.814L183.99 14.0312H184.054L185.187 9.45455H186.764L184.91 16H183.304L182.076 11.5767H181.987L180.76 16H179.149ZM189.604 16.1321C189.19 16.1321 188.816 16.0582 188.484 15.9105C188.154 15.7599 187.893 15.5384 187.7 15.2457C187.509 14.9531 187.414 14.5923 187.414 14.1634C187.414 13.794 187.482 13.4886 187.619 13.2472C187.755 13.0057 187.941 12.8125 188.177 12.6676C188.413 12.5227 188.678 12.4134 188.974 12.3395C189.272 12.2628 189.58 12.2074 189.899 12.1733C190.282 12.1335 190.593 12.098 190.832 12.0668C191.07 12.0327 191.244 11.9815 191.352 11.9134C191.462 11.8423 191.518 11.733 191.518 11.5852V11.5597C191.518 11.2386 191.423 10.9901 191.232 10.8139C191.042 10.6378 190.768 10.5497 190.41 10.5497C190.032 10.5497 189.732 10.6321 189.511 10.7969C189.292 10.9616 189.144 11.1562 189.068 11.3807L187.627 11.1761C187.741 10.7784 187.928 10.446 188.19 10.179C188.451 9.90909 188.771 9.70739 189.149 9.57386C189.526 9.4375 189.944 9.36932 190.401 9.36932C190.717 9.36932 191.031 9.40625 191.343 9.48011C191.656 9.55398 191.941 9.67614 192.2 9.84659C192.458 10.0142 192.666 10.2429 192.822 10.5327C192.981 10.8224 193.06 11.1847 193.06 11.6193V16H191.578V15.1009H191.526C191.433 15.2827 191.301 15.4531 191.13 15.6122C190.962 15.7685 190.751 15.8949 190.495 15.9915C190.242 16.0852 189.945 16.1321 189.604 16.1321ZM190.005 14.9986C190.315 14.9986 190.583 14.9375 190.81 14.8153C191.038 14.6903 191.212 14.5256 191.335 14.321C191.46 14.1165 191.522 13.8935 191.522 13.652V12.8807C191.474 12.9205 191.391 12.9574 191.275 12.9915C191.161 13.0256 191.033 13.0554 190.891 13.081C190.749 13.1065 190.609 13.1293 190.47 13.1491C190.33 13.169 190.21 13.1861 190.107 13.2003C189.877 13.2315 189.671 13.2827 189.489 13.3537C189.308 13.4247 189.164 13.5241 189.059 13.652C188.954 13.777 188.901 13.9389 188.901 14.1378C188.901 14.4219 189.005 14.6364 189.212 14.7812C189.42 14.9261 189.684 14.9986 190.005 14.9986ZM194.492 16V9.45455H195.987V10.5455H196.056C196.175 10.1676 196.379 9.87642 196.669 9.67188C196.962 9.46449 197.296 9.3608 197.671 9.3608C197.756 9.3608 197.851 9.36506 197.956 9.37358C198.064 9.37926 198.154 9.3892 198.225 9.40341V10.8224C198.159 10.7997 198.056 10.7798 197.913 10.7628C197.774 10.7429 197.639 10.733 197.509 10.733C197.227 10.733 196.975 10.794 196.75 10.9162C196.529 11.0355 196.354 11.2017 196.226 11.4148C196.098 11.6278 196.034 11.8736 196.034 12.152V16H194.492ZM201.758 16.1278C201.101 16.1278 200.535 15.9915 200.057 15.7188C199.583 15.4432 199.218 15.054 198.962 14.5511C198.706 14.0455 198.579 13.4503 198.579 12.7656C198.579 12.0923 198.706 11.5014 198.962 10.9929C199.221 10.4815 199.581 10.0838 200.045 9.79972C200.508 9.51278 201.052 9.36932 201.677 9.36932C202.08 9.36932 202.461 9.43466 202.819 9.56534C203.179 9.69318 203.498 9.89205 203.773 10.1619C204.052 10.4318 204.27 10.7756 204.429 11.1932C204.589 11.608 204.668 12.1023 204.668 12.6761V13.1491H199.303V12.1094H203.189C203.187 11.8139 203.123 11.5511 202.998 11.321C202.873 11.0881 202.698 10.9048 202.474 10.7713C202.252 10.6378 201.993 10.571 201.698 10.571C201.383 10.571 201.106 10.6477 200.867 10.8011C200.628 10.9517 200.442 11.1506 200.309 11.3977C200.178 11.642 200.111 11.9105 200.108 12.2031V13.1108C200.108 13.4915 200.178 13.8182 200.317 14.0909C200.456 14.3608 200.651 14.5682 200.901 14.7131C201.151 14.8551 201.444 14.9261 201.779 14.9261C202.003 14.9261 202.206 14.8949 202.388 14.8324C202.57 14.767 202.728 14.6719 202.861 14.5469C202.995 14.4219 203.096 14.267 203.164 14.0824L204.604 14.2443C204.513 14.625 204.34 14.9574 204.084 15.2415C203.831 15.5227 203.508 15.7415 203.113 15.8977C202.718 16.0511 202.266 16.1278 201.758 16.1278ZM207.396 12.1648V16H205.853V9.45455H207.328V10.5668H207.404C207.555 10.2003 207.795 9.90909 208.124 9.69318C208.457 9.47727 208.867 9.36932 209.356 9.36932C209.808 9.36932 210.201 9.46591 210.536 9.65909C210.874 9.85227 211.136 10.1321 211.32 10.4986C211.508 10.8651 211.6 11.3097 211.597 11.8324V16H210.055V12.071C210.055 11.6335 209.941 11.2912 209.714 11.044C209.49 10.7969 209.178 10.6733 208.781 10.6733C208.511 10.6733 208.271 10.733 208.061 10.8523C207.853 10.9687 207.69 11.1378 207.57 11.3594C207.454 11.581 207.396 11.8494 207.396 12.1648ZM215.943 16.1278C215.287 16.1278 214.72 15.9915 214.243 15.7188C213.769 15.4432 213.404 15.054 213.148 14.5511C212.892 14.0455 212.764 13.4503 212.764 12.7656C212.764 12.0923 212.892 11.5014 213.148 10.9929C213.406 10.4815 213.767 10.0838 214.23 9.79972C214.693 9.51278 215.237 9.36932 215.862 9.36932C216.266 9.36932 216.647 9.43466 217.004 9.56534C217.365 9.69318 217.683 9.89205 217.959 10.1619C218.237 10.4318 218.456 10.7756 218.615 11.1932C218.774 11.608 218.854 12.1023 218.854 12.6761V13.1491H213.489V12.1094H217.375C217.372 11.8139 217.308 11.5511 217.183 11.321C217.058 11.0881 216.884 10.9048 216.659 10.7713C216.438 10.6378 216.179 10.571 215.884 10.571C215.568 10.571 215.291 10.6477 215.053 10.8011C214.814 10.9517 214.628 11.1506 214.495 11.3977C214.364 11.642 214.297 11.9105 214.294 12.2031V13.1108C214.294 13.4915 214.364 13.8182 214.503 14.0909C214.642 14.3608 214.837 14.5682 215.087 14.7131C215.337 14.8551 215.629 14.9261 215.965 14.9261C216.189 14.9261 216.392 14.8949 216.574 14.8324C216.756 14.767 216.914 14.6719 217.047 14.5469C217.181 14.4219 217.281 14.267 217.35 14.0824L218.79 14.2443C218.699 14.625 218.526 14.9574 218.27 15.2415C218.017 15.5227 217.693 15.7415 217.299 15.8977C216.904 16.0511 216.452 16.1278 215.943 16.1278ZM225.212 11.1847L223.806 11.3381C223.766 11.196 223.697 11.0625 223.597 10.9375C223.501 10.8125 223.37 10.7116 223.205 10.6349C223.04 10.5582 222.839 10.5199 222.6 10.5199C222.279 10.5199 222.009 10.5895 221.79 10.7287C221.574 10.8679 221.468 11.0483 221.471 11.2699C221.468 11.4602 221.538 11.6151 221.68 11.7344C221.824 11.8537 222.063 11.9517 222.395 12.0284L223.512 12.267C224.131 12.4006 224.591 12.6122 224.893 12.902C225.197 13.1918 225.35 13.571 225.353 14.0398C225.35 14.4517 225.229 14.8153 224.991 15.1307C224.755 15.4432 224.427 15.6875 224.006 15.8636C223.586 16.0398 223.103 16.1278 222.557 16.1278C221.756 16.1278 221.111 15.9602 220.623 15.625C220.134 15.2869 219.843 14.8168 219.749 14.2145L221.253 14.0696C221.322 14.3651 221.466 14.5881 221.688 14.7386C221.91 14.8892 222.198 14.9645 222.553 14.9645C222.92 14.9645 223.214 14.8892 223.435 14.7386C223.66 14.5881 223.772 14.402 223.772 14.1804C223.772 13.9929 223.699 13.8381 223.555 13.7159C223.413 13.5937 223.191 13.5 222.89 13.4347L221.773 13.2003C221.145 13.0696 220.681 12.8494 220.38 12.5398C220.079 12.2273 219.93 11.8324 219.932 11.3551C219.93 10.9517 220.039 10.6023 220.261 10.3068C220.485 10.0085 220.796 9.77841 221.194 9.61648C221.594 9.4517 222.056 9.36932 222.579 9.36932C223.346 9.36932 223.949 9.53267 224.39 9.85938C224.833 10.1861 225.107 10.6278 225.212 11.1847ZM231.678 11.1847L230.272 11.3381C230.232 11.196 230.163 11.0625 230.063 10.9375C229.967 10.8125 229.836 10.7116 229.671 10.6349C229.506 10.5582 229.305 10.5199 229.066 10.5199C228.745 10.5199 228.475 10.5895 228.256 10.7287C228.04 10.8679 227.934 11.0483 227.937 11.2699C227.934 11.4602 228.003 11.6151 228.146 11.7344C228.29 11.8537 228.529 11.9517 228.861 12.0284L229.978 12.267C230.597 12.4006 231.057 12.6122 231.359 12.902C231.663 13.1918 231.816 13.571 231.819 14.0398C231.816 14.4517 231.695 14.8153 231.457 15.1307C231.221 15.4432 230.893 15.6875 230.472 15.8636C230.052 16.0398 229.569 16.1278 229.023 16.1278C228.222 16.1278 227.577 15.9602 227.089 15.625C226.6 15.2869 226.309 14.8168 226.215 14.2145L227.719 14.0696C227.788 14.3651 227.932 14.5881 228.154 14.7386C228.376 14.8892 228.664 14.9645 229.019 14.9645C229.386 14.9645 229.68 14.8892 229.901 14.7386C230.126 14.5881 230.238 14.402 230.238 14.1804C230.238 13.9929 230.165 13.8381 230.021 13.7159C229.878 13.5937 229.657 13.5 229.356 13.4347L228.239 13.2003C227.611 13.0696 227.147 12.8494 226.846 12.5398C226.545 12.2273 226.396 11.8324 226.398 11.3551C226.396 10.9517 226.505 10.6023 226.726 10.3068C226.951 10.0085 227.262 9.77841 227.66 9.61648C228.06 9.4517 228.522 9.36932 229.045 9.36932C229.812 9.36932 230.415 9.53267 230.856 9.85938C231.299 10.1861 231.573 10.6278 231.678 11.1847ZM26.2837 31H23.3263V22.2727H26.3434C27.2099 22.2727 27.9542 22.4474 28.5763 22.7969C29.2013 23.1435 29.6815 23.642 30.0167 24.2926C30.3519 24.9432 30.5195 25.7216 30.5195 26.6278C30.5195 27.5369 30.3505 28.3182 30.0124 28.9716C29.6772 29.625 29.1928 30.1264 28.5593 30.4759C27.9286 30.8253 27.1701 31 26.2837 31ZM24.9073 29.6321H26.207C26.815 29.6321 27.3221 29.5213 27.7283 29.2997C28.1346 29.0753 28.44 28.7415 28.6445 28.2983C28.8491 27.8523 28.9513 27.2955 28.9513 26.6278C28.9513 25.9602 28.8491 25.4062 28.6445 24.9659C28.44 24.5227 28.1374 24.1918 27.7369 23.973C27.3391 23.7514 26.8448 23.6406 26.2539 23.6406H24.9073V29.6321ZM31.8335 31V24.4545H33.3761V31H31.8335ZM32.609 23.5256C32.3647 23.5256 32.1545 23.4446 31.9784 23.2827C31.8022 23.1179 31.7142 22.9205 31.7142 22.6903C31.7142 22.4574 31.8022 22.2599 31.9784 22.098C32.1545 21.9332 32.3647 21.8509 32.609 21.8509C32.8562 21.8509 33.0664 21.9332 33.2397 22.098C33.4159 22.2599 33.5039 22.4574 33.5039 22.6903C33.5039 22.9205 33.4159 23.1179 33.2397 23.2827C33.0664 23.4446 32.8562 23.5256 32.609 23.5256ZM38.1577 24.4545V25.6477H34.2884V24.4545H38.1577ZM35.2557 31V23.8366C35.2557 23.3963 35.3466 23.0298 35.5285 22.7372C35.7131 22.4446 35.9603 22.2259 36.2699 22.081C36.5796 21.9361 36.9233 21.8636 37.3012 21.8636C37.5682 21.8636 37.8054 21.8849 38.0128 21.9276C38.2202 21.9702 38.3736 22.0085 38.4731 22.0426L38.1662 23.2358C38.1009 23.2159 38.0185 23.196 37.9191 23.1761C37.8197 23.1534 37.7089 23.142 37.5867 23.142C37.2998 23.142 37.0966 23.2116 36.9773 23.3509C36.8608 23.4872 36.8026 23.6832 36.8026 23.9389V31H35.2557ZM42.5612 24.4545V25.6477H38.6918V24.4545H42.5612ZM39.6592 31V23.8366C39.6592 23.3963 39.7501 23.0298 39.9319 22.7372C40.1166 22.4446 40.3637 22.2259 40.6734 22.081C40.983 21.9361 41.3268 21.8636 41.7046 21.8636C41.9717 21.8636 42.2089 21.8849 42.4163 21.9276C42.6237 21.9702 42.7771 22.0085 42.8765 22.0426L42.5697 23.2358C42.5043 23.2159 42.422 23.196 42.3225 23.1761C42.2231 23.1534 42.1123 23.142 41.9901 23.142C41.7032 23.142 41.5001 23.2116 41.3808 23.3509C41.2643 23.4872 41.206 23.6832 41.206 23.9389V31H39.6592ZM47.8211 28.2472V24.4545H49.3637V31H47.868V29.8366H47.7998C47.6521 30.2031 47.4092 30.5028 47.0711 30.7358C46.7359 30.9687 46.3225 31.0852 45.8311 31.0852C45.4021 31.0852 45.0228 30.9901 44.6933 30.7997C44.3666 30.6065 44.1109 30.3267 43.9262 29.9602C43.7416 29.5909 43.6493 29.1449 43.6493 28.6222V24.4545H45.1919V28.3835C45.1919 28.7983 45.3055 29.1278 45.5328 29.3722C45.76 29.6165 46.0583 29.7386 46.4277 29.7386C46.6549 29.7386 46.8751 29.6832 47.0882 29.5724C47.3012 29.4616 47.476 29.2969 47.6123 29.0781C47.7515 28.8565 47.8211 28.5795 47.8211 28.2472ZM56.0033 26.1847L54.5971 26.3381C54.5573 26.196 54.4877 26.0625 54.3883 25.9375C54.2917 25.8125 54.161 25.7116 53.9962 25.6349C53.8315 25.5582 53.6298 25.5199 53.3911 25.5199C53.0701 25.5199 52.8002 25.5895 52.5815 25.7287C52.3655 25.8679 52.259 26.0483 52.2619 26.2699C52.259 26.4602 52.3286 26.6151 52.4707 26.7344C52.6155 26.8537 52.8542 26.9517 53.1866 27.0284L54.303 27.267C54.9224 27.4006 55.3826 27.6122 55.6837 27.902C55.9877 28.1918 56.1411 28.571 56.144 29.0398C56.1411 29.4517 56.0204 29.8153 55.7817 30.1307C55.5459 30.4432 55.2178 30.6875 54.7974 30.8636C54.3769 31.0398 53.894 31.1278 53.3485 31.1278C52.5474 31.1278 51.9025 30.9602 51.4138 30.625C50.9252 30.2869 50.634 29.8168 50.5403 29.2145L52.0445 29.0696C52.1127 29.3651 52.2576 29.5881 52.4792 29.7386C52.7008 29.8892 52.9891 29.9645 53.3442 29.9645C53.7107 29.9645 54.0047 29.8892 54.2263 29.7386C54.4508 29.5881 54.563 29.402 54.563 29.1804C54.563 28.9929 54.4905 28.8381 54.3457 28.7159C54.2036 28.5937 53.982 28.5 53.6809 28.4347L52.5644 28.2003C51.9366 28.0696 51.4721 27.8494 51.1709 27.5398C50.8698 27.2273 50.7207 26.8324 50.7235 26.3551C50.7207 25.9517 50.83 25.6023 51.0516 25.3068C51.2761 25.0085 51.5871 24.7784 51.9849 24.6165C52.3854 24.4517 52.8471 24.3693 53.3698 24.3693C54.1369 24.3693 54.7405 24.5327 55.1809 24.8594C55.6241 25.1861 55.8982 25.6278 56.0033 26.1847ZM60.1937 31.1278C59.5374 31.1278 58.9707 30.9915 58.4934 30.7188C58.019 30.4432 57.6539 30.054 57.3982 29.5511C57.1426 29.0455 57.0147 28.4503 57.0147 27.7656C57.0147 27.0923 57.1426 26.5014 57.3982 25.9929C57.6568 25.4815 58.0176 25.0838 58.4806 24.7997C58.9437 24.5128 59.4877 24.3693 60.1127 24.3693C60.5161 24.3693 60.8968 24.4347 61.2548 24.5653C61.6156 24.6932 61.9338 24.892 62.2093 25.1619C62.4877 25.4318 62.7065 25.7756 62.8656 26.1932C63.0247 26.608 63.1042 27.1023 63.1042 27.6761V28.1491H57.7392V27.1094H61.6255C61.6227 26.8139 61.5588 26.5511 61.4338 26.321C61.3088 26.0881 61.134 25.9048 60.9096 25.7713C60.688 25.6378 60.4295 25.571 60.134 25.571C59.8187 25.571 59.5417 25.6477 59.3031 25.8011C59.0644 25.9517 58.8784 26.1506 58.7448 26.3977C58.6142 26.642 58.5474 26.9105 58.5446 27.2031V28.1108C58.5446 28.4915 58.6142 28.8182 58.7534 29.0909C58.8926 29.3608 59.0872 29.5682 59.3372 29.7131C59.5872 29.8551 59.8798 29.9261 60.215 29.9261C60.4394 29.9261 60.6426 29.8949 60.8244 29.8324C61.0062 29.767 61.1639 29.6719 61.2974 29.5469C61.4309 29.4219 61.5318 29.267 61.5999 29.0824L63.0403 29.2443C62.9494 29.625 62.7761 29.9574 62.5204 30.2415C62.2676 30.5227 61.9437 30.7415 61.5488 30.8977C61.1539 31.0511 60.7022 31.1278 60.1937 31.1278ZM68.795 22.2727V31H67.214V22.2727H68.795ZM71.8614 27.1648V31H70.3188V24.4545H71.7932V25.5668H71.8699C72.0205 25.2003 72.2605 24.9091 72.5901 24.6932C72.9225 24.4773 73.333 24.3693 73.8216 24.3693C74.2733 24.3693 74.6668 24.4659 75.002 24.6591C75.3401 24.8523 75.6015 25.1321 75.7861 25.4986C75.9736 25.8651 76.0659 26.3097 76.0631 26.8324V31H74.5205V27.071C74.5205 26.6335 74.4069 26.2912 74.1796 26.044C73.9551 25.7969 73.6441 25.6733 73.2463 25.6733C72.9765 25.6733 72.7364 25.733 72.5262 25.8523C72.3188 25.9687 72.1554 26.1378 72.0361 26.3594C71.9196 26.581 71.8614 26.8494 71.8614 27.1648ZM80.7797 24.4545V25.6477H77.017V24.4545H80.7797ZM77.9459 22.8864H79.4886V29.0312C79.4886 29.2386 79.5198 29.3977 79.5823 29.5085C79.6476 29.6165 79.7329 29.6903 79.838 29.7301C79.9431 29.7699 80.0596 29.7898 80.1874 29.7898C80.284 29.7898 80.3721 29.7827 80.4516 29.7685C80.534 29.7543 80.5965 29.7415 80.6391 29.7301L80.8991 30.9361C80.8167 30.9645 80.6988 30.9957 80.5454 31.0298C80.3948 31.0639 80.2101 31.0838 79.9914 31.0895C79.605 31.1009 79.257 31.0426 78.9474 30.9148C78.6377 30.7841 78.392 30.5824 78.2101 30.3097C78.0312 30.0369 77.9431 29.696 77.9459 29.2869V22.8864ZM81.9499 31V24.4545H83.4456V25.5455H83.5138C83.6331 25.1676 83.8377 24.8764 84.1274 24.6719C84.42 24.4645 84.7539 24.3608 85.1289 24.3608C85.2141 24.3608 85.3093 24.3651 85.4144 24.3736C85.5223 24.3793 85.6118 24.3892 85.6828 24.4034V25.8224C85.6175 25.7997 85.5138 25.7798 85.3718 25.7628C85.2325 25.7429 85.0976 25.733 84.9669 25.733C84.6857 25.733 84.4328 25.794 84.2084 25.9162C83.9868 26.0355 83.8121 26.2017 83.6843 26.4148C83.5564 26.6278 83.4925 26.8736 83.4925 27.152V31H81.9499ZM86.5877 31V24.4545H88.1303V31H86.5877ZM87.3633 23.5256C87.1189 23.5256 86.9087 23.4446 86.7326 23.2827C86.5564 23.1179 86.4684 22.9205 86.4684 22.6903C86.4684 22.4574 86.5564 22.2599 86.7326 22.098C86.9087 21.9332 87.1189 21.8509 87.3633 21.8509C87.6104 21.8509 87.8206 21.9332 87.9939 22.098C88.1701 22.2599 88.2581 22.4574 88.2581 22.6903C88.2581 22.9205 88.1701 23.1179 87.9939 23.2827C87.8206 23.4446 87.6104 23.5256 87.3633 23.5256ZM91.1392 27.1648V31H89.5966V24.4545H91.071V25.5668H91.1477C91.2983 25.2003 91.5384 24.9091 91.8679 24.6932C92.2003 24.4773 92.6108 24.3693 93.0994 24.3693C93.5511 24.3693 93.9446 24.4659 94.2798 24.6591C94.6179 24.8523 94.8793 25.1321 95.0639 25.4986C95.2514 25.8651 95.3438 26.3097 95.3409 26.8324V31H93.7983V27.071C93.7983 26.6335 93.6847 26.2912 93.4574 26.044C93.233 25.7969 92.9219 25.6733 92.5242 25.6733C92.2543 25.6733 92.0142 25.733 91.804 25.8523C91.5966 25.9687 91.4332 26.1378 91.3139 26.3594C91.1975 26.581 91.1392 26.8494 91.1392 27.1648ZM101.962 26.1847L100.556 26.3381C100.516 26.196 100.447 26.0625 100.347 25.9375C100.251 25.8125 100.12 25.7116 99.9553 25.6349C99.7905 25.5582 99.5888 25.5199 99.3502 25.5199C99.0292 25.5199 98.7593 25.5895 98.5405 25.7287C98.3246 25.8679 98.2181 26.0483 98.2209 26.2699C98.2181 26.4602 98.2877 26.6151 98.4297 26.7344C98.5746 26.8537 98.8132 26.9517 99.1456 27.0284L100.262 27.267C100.881 27.4006 101.342 27.6122 101.643 27.902C101.947 28.1918 102.1 28.571 102.103 29.0398C102.1 29.4517 101.979 29.8153 101.741 30.1307C101.505 30.4432 101.177 30.6875 100.756 30.8636C100.336 31.0398 99.853 31.1278 99.3076 31.1278C98.5064 31.1278 97.8615 30.9602 97.3729 30.625C96.8843 30.2869 96.5931 29.8168 96.4993 29.2145L98.0036 29.0696C98.0718 29.3651 98.2167 29.5881 98.4382 29.7386C98.6598 29.8892 98.9482 29.9645 99.3033 29.9645C99.6698 29.9645 99.9638 29.8892 100.185 29.7386C100.41 29.5881 100.522 29.402 100.522 29.1804C100.522 28.9929 100.45 28.8381 100.305 28.7159C100.163 28.5937 99.9411 28.5 99.6399 28.4347L98.5235 28.2003C97.8956 28.0696 97.4311 27.8494 97.13 27.5398C96.8289 27.2273 96.6797 26.8324 96.6826 26.3551C96.6797 25.9517 96.7891 25.6023 97.0107 25.3068C97.2351 25.0085 97.5462 24.7784 97.9439 24.6165C98.3445 24.4517 98.8061 24.3693 99.3289 24.3693C100.096 24.3693 100.7 24.5327 101.14 24.8594C101.583 25.1861 101.857 25.6278 101.962 26.1847ZM103.255 31V24.4545H104.798V31H103.255ZM104.031 23.5256C103.786 23.5256 103.576 23.4446 103.4 23.2827C103.224 23.1179 103.136 22.9205 103.136 22.6903C103.136 22.4574 103.224 22.2599 103.4 22.098C103.576 21.9332 103.786 21.8509 104.031 21.8509C104.278 21.8509 104.488 21.9332 104.661 22.098C104.837 22.2599 104.925 22.4574 104.925 22.6903C104.925 22.9205 104.837 23.1179 104.661 23.2827C104.488 23.4446 104.278 23.5256 104.031 23.5256ZM109.119 31.1278C108.466 31.1278 107.905 30.9844 107.436 30.6974C106.97 30.4105 106.611 30.0142 106.358 29.5085C106.108 29 105.983 28.4148 105.983 27.7528C105.983 27.0881 106.111 26.5014 106.366 25.9929C106.622 25.4815 106.983 25.0838 107.449 24.7997C107.917 24.5128 108.471 24.3693 109.111 24.3693C109.642 24.3693 110.112 24.4673 110.521 24.6634C110.933 24.8565 111.261 25.1307 111.505 25.4858C111.75 25.8381 111.889 26.25 111.923 26.7216H110.449C110.389 26.4062 110.247 26.1435 110.022 25.9332C109.801 25.7202 109.504 25.6136 109.132 25.6136C108.816 25.6136 108.54 25.6989 108.301 25.8693C108.062 26.0369 107.876 26.2784 107.743 26.5938C107.612 26.9091 107.547 27.2869 107.547 27.7273C107.547 28.1733 107.612 28.5568 107.743 28.8778C107.873 29.196 108.057 29.4418 108.292 29.6151C108.531 29.7855 108.811 29.8707 109.132 29.8707C109.359 29.8707 109.562 29.8281 109.741 29.7429C109.923 29.6548 110.075 29.5284 110.197 29.3636C110.319 29.1989 110.403 28.9986 110.449 28.7628H111.923C111.886 29.2259 111.75 29.6364 111.514 29.9943C111.278 30.3494 110.957 30.6278 110.551 30.8295C110.145 31.0284 109.667 31.1278 109.119 31.1278ZM115.994 31V22.2727H119.267C119.938 22.2727 120.5 22.3977 120.955 22.6477C121.412 22.8977 121.757 23.2415 121.99 23.679C122.226 24.1136 122.344 24.608 122.344 25.1619C122.344 25.7216 122.226 26.2187 121.99 26.6534C121.754 27.0881 121.406 27.4304 120.946 27.6804C120.486 27.9276 119.919 28.0511 119.246 28.0511H117.077V26.7514H119.033C119.425 26.7514 119.746 26.6832 119.996 26.5469C120.246 26.4105 120.431 26.223 120.55 25.9844C120.672 25.7457 120.733 25.4716 120.733 25.1619C120.733 24.8523 120.672 24.5795 120.55 24.3438C120.431 24.108 120.244 23.9247 119.992 23.794C119.742 23.6605 119.419 23.5938 119.024 23.5938H117.575V31H115.994ZM126.29 31.1278C125.651 31.1278 125.097 30.9872 124.628 30.706C124.16 30.4247 123.796 30.0312 123.537 29.5256C123.282 29.0199 123.154 28.429 123.154 27.7528C123.154 27.0767 123.282 26.4844 123.537 25.9759C123.796 25.4673 124.16 25.0724 124.628 24.7912C125.097 24.5099 125.651 24.3693 126.29 24.3693C126.93 24.3693 127.483 24.5099 127.952 24.7912C128.421 25.0724 128.783 25.4673 129.039 25.9759C129.297 26.4844 129.427 27.0767 129.427 27.7528C129.427 28.429 129.297 29.0199 129.039 29.5256C128.783 30.0312 128.421 30.4247 127.952 30.706C127.483 30.9872 126.93 31.1278 126.29 31.1278ZM126.299 29.892C126.645 29.892 126.935 29.7969 127.168 29.6065C127.401 29.4134 127.574 29.1548 127.688 28.831C127.805 28.5071 127.863 28.1463 127.863 27.7486C127.863 27.348 127.805 26.9858 127.688 26.6619C127.574 26.3352 127.401 26.0753 127.168 25.8821C126.935 25.6889 126.645 25.5923 126.299 25.5923C125.944 25.5923 125.648 25.6889 125.412 25.8821C125.18 26.0753 125.005 26.3352 124.888 26.6619C124.775 26.9858 124.718 27.348 124.718 27.7486C124.718 28.1463 124.775 28.5071 124.888 28.831C125.005 29.1548 125.18 29.4134 125.412 29.6065C125.648 29.7969 125.944 29.892 126.299 29.892ZM132.159 27.1648V31H130.616V24.4545H132.09V25.5668H132.167C132.318 25.2003 132.558 24.9091 132.887 24.6932C133.22 24.4773 133.63 24.3693 134.119 24.3693C134.571 24.3693 134.964 24.4659 135.299 24.6591C135.637 24.8523 135.899 25.1321 136.083 25.4986C136.271 25.8651 136.363 26.3097 136.36 26.8324V31H134.818V27.071C134.818 26.6335 134.704 26.2912 134.477 26.044C134.252 25.7969 133.941 25.6733 133.544 25.6733C133.274 25.6733 133.034 25.733 132.823 25.8523C132.616 25.9687 132.453 26.1378 132.333 26.3594C132.217 26.581 132.159 26.8494 132.159 27.1648ZM141.077 24.4545V25.6477H137.314V24.4545H141.077ZM138.243 22.8864H139.786V29.0312C139.786 29.2386 139.817 29.3977 139.879 29.5085C139.945 29.6165 140.03 29.6903 140.135 29.7301C140.24 29.7699 140.357 29.7898 140.485 29.7898C140.581 29.7898 140.669 29.7827 140.749 29.7685C140.831 29.7543 140.894 29.7415 140.936 29.7301L141.196 30.9361C141.114 30.9645 140.996 30.9957 140.843 31.0298C140.692 31.0639 140.507 31.0838 140.289 31.0895C139.902 31.1009 139.554 31.0426 139.245 30.9148C138.935 30.7841 138.689 30.5824 138.507 30.3097C138.328 30.0369 138.24 29.696 138.243 29.2869V22.8864ZM142.247 31V24.4545H143.79V31H142.247ZM143.023 23.5256C142.778 23.5256 142.568 23.4446 142.392 23.2827C142.216 23.1179 142.128 22.9205 142.128 22.6903C142.128 22.4574 142.216 22.2599 142.392 22.098C142.568 21.9332 142.778 21.8509 143.023 21.8509C143.27 21.8509 143.48 21.9332 143.653 22.098C143.829 22.2599 143.918 22.4574 143.918 22.6903C143.918 22.9205 143.829 23.1179 143.653 23.2827C143.48 23.4446 143.27 23.5256 143.023 23.5256ZM146.799 27.1648V31H145.256V24.4545H146.73V25.5668H146.807C146.958 25.2003 147.198 24.9091 147.527 24.6932C147.86 24.4773 148.27 24.3693 148.759 24.3693C149.211 24.3693 149.604 24.4659 149.939 24.6591C150.277 24.8523 150.539 25.1321 150.723 25.4986C150.911 25.8651 151.003 26.3097 151 26.8324V31H149.458V27.071C149.458 26.6335 149.344 26.2912 149.117 26.044C148.892 25.7969 148.581 25.6733 148.184 25.6733C147.914 25.6733 147.674 25.733 147.463 25.8523C147.256 25.9687 147.093 26.1378 146.973 26.3594C146.857 26.581 146.799 26.8494 146.799 27.1648ZM155.346 31.1278C154.69 31.1278 154.123 30.9915 153.646 30.7188C153.171 30.4432 152.806 30.054 152.551 29.5511C152.295 29.0455 152.167 28.4503 152.167 27.7656C152.167 27.0923 152.295 26.5014 152.551 25.9929C152.809 25.4815 153.17 25.0838 153.633 24.7997C154.096 24.5128 154.64 24.3693 155.265 24.3693C155.669 24.3693 156.049 24.4347 156.407 24.5653C156.768 24.6932 157.086 24.892 157.362 25.1619C157.64 25.4318 157.859 25.7756 158.018 26.1932C158.177 26.608 158.257 27.1023 158.257 27.6761V28.1491H152.892V27.1094H156.778C156.775 26.8139 156.711 26.5511 156.586 26.321C156.461 26.0881 156.287 25.9048 156.062 25.7713C155.841 25.6378 155.582 25.571 155.287 25.571C154.971 25.571 154.694 25.6477 154.456 25.8011C154.217 25.9517 154.031 26.1506 153.897 26.3977C153.767 26.642 153.7 26.9105 153.697 27.2031V28.1108C153.697 28.4915 153.767 28.8182 153.906 29.0909C154.045 29.3608 154.24 29.5682 154.49 29.7131C154.74 29.8551 155.032 29.9261 155.368 29.9261C155.592 29.9261 155.795 29.8949 155.977 29.8324C156.159 29.767 156.316 29.6719 156.45 29.5469C156.583 29.4219 156.684 29.267 156.752 29.0824L158.193 29.2443C158.102 29.625 157.929 29.9574 157.673 30.2415C157.42 30.5227 157.096 30.7415 156.701 30.8977C156.306 31.0511 155.855 31.1278 155.346 31.1278ZM168.213 25.0597C168.142 24.8295 168.044 24.6236 167.919 24.4418C167.797 24.2571 167.649 24.0994 167.476 23.9688C167.305 23.8381 167.109 23.7401 166.888 23.6747C166.666 23.6065 166.425 23.5724 166.163 23.5724C165.695 23.5724 165.277 23.6903 164.911 23.9261C164.544 24.1619 164.256 24.5085 164.045 24.9659C163.838 25.4205 163.734 25.9744 163.734 26.6278C163.734 27.2869 163.838 27.8452 164.045 28.3026C164.253 28.7599 164.541 29.108 164.911 29.3466C165.28 29.5824 165.709 29.7003 166.197 29.7003C166.641 29.7003 167.024 29.6151 167.348 29.4446C167.675 29.2741 167.926 29.0327 168.102 28.7202C168.278 28.4048 168.367 28.0355 168.367 27.6122L168.724 27.6676H166.355V26.4318H169.896V27.4801C169.896 28.2273 169.737 28.8736 169.419 29.419C169.101 29.9645 168.663 30.3849 168.107 30.6804C167.55 30.973 166.911 31.1193 166.189 31.1193C165.385 31.1193 164.679 30.9389 164.071 30.5781C163.466 30.2145 162.993 29.6989 162.652 29.0312C162.314 28.3608 162.145 27.5653 162.145 26.6449C162.145 25.9403 162.244 25.3111 162.443 24.7571C162.645 24.2031 162.926 23.733 163.287 23.3466C163.648 22.9574 164.071 22.6619 164.557 22.4602C165.043 22.2557 165.571 22.1534 166.142 22.1534C166.625 22.1534 167.075 22.2244 167.493 22.3665C167.911 22.5057 168.281 22.7045 168.605 22.9631C168.932 23.2216 169.2 23.5284 169.411 23.8835C169.621 24.2386 169.759 24.6307 169.824 25.0597H168.213ZM172.78 22.2727V31H171.237V22.2727H172.78ZM174.246 31V24.4545H175.788V31H174.246ZM175.021 23.5256C174.777 23.5256 174.567 23.4446 174.391 23.2827C174.215 23.1179 174.126 22.9205 174.126 22.6903C174.126 22.4574 174.215 22.2599 174.391 22.098C174.567 21.9332 174.777 21.8509 175.021 21.8509C175.269 21.8509 175.479 21.9332 175.652 22.098C175.828 22.2599 175.916 22.4574 175.916 22.6903C175.916 22.9205 175.828 23.1179 175.652 23.2827C175.479 23.4446 175.269 23.5256 175.021 23.5256ZM180.11 31.1278C179.471 31.1278 178.917 30.9872 178.448 30.706C177.979 30.4247 177.616 30.0312 177.357 29.5256C177.101 29.0199 176.973 28.429 176.973 27.7528C176.973 27.0767 177.101 26.4844 177.357 25.9759C177.616 25.4673 177.979 25.0724 178.448 24.7912C178.917 24.5099 179.471 24.3693 180.11 24.3693C180.749 24.3693 181.303 24.5099 181.772 24.7912C182.241 25.0724 182.603 25.4673 182.858 25.9759C183.117 26.4844 183.246 27.0767 183.246 27.7528C183.246 28.429 183.117 29.0199 182.858 29.5256C182.603 30.0312 182.241 30.4247 181.772 30.706C181.303 30.9872 180.749 31.1278 180.11 31.1278ZM180.118 29.892C180.465 29.892 180.755 29.7969 180.988 29.6065C181.221 29.4134 181.394 29.1548 181.508 28.831C181.624 28.5071 181.682 28.1463 181.682 27.7486C181.682 27.348 181.624 26.9858 181.508 26.6619C181.394 26.3352 181.221 26.0753 180.988 25.8821C180.755 25.6889 180.465 25.5923 180.118 25.5923C179.763 25.5923 179.468 25.6889 179.232 25.8821C178.999 26.0753 178.824 26.3352 178.708 26.6619C178.594 26.9858 178.537 27.348 178.537 27.7486C178.537 28.1463 178.594 28.5071 178.708 28.831C178.824 29.1548 178.999 29.4134 179.232 29.6065C179.468 29.7969 179.763 29.892 180.118 29.892ZM184.435 31V24.4545H185.91V25.5668H185.987C186.123 25.1918 186.349 24.8991 186.664 24.6889C186.98 24.4759 187.356 24.3693 187.793 24.3693C188.237 24.3693 188.61 24.4773 188.914 24.6932C189.221 24.9062 189.437 25.1974 189.562 25.5668H189.63C189.775 25.2031 190.019 24.9134 190.363 24.6974C190.71 24.4787 191.12 24.3693 191.595 24.3693C192.197 24.3693 192.688 24.5597 193.069 24.9403C193.45 25.321 193.64 25.8764 193.64 26.6065V31H192.093V26.8452C192.093 26.4389 191.985 26.142 191.769 25.9545C191.553 25.7642 191.289 25.669 190.977 25.669C190.605 25.669 190.313 25.7855 190.103 26.0185C189.896 26.2486 189.792 26.5483 189.792 26.9176V31H188.279V26.7812C188.279 26.4432 188.177 26.1733 187.972 25.9716C187.771 25.7699 187.507 25.669 187.18 25.669C186.958 25.669 186.757 25.7259 186.575 25.8395C186.393 25.9503 186.248 26.108 186.14 26.3125C186.032 26.5142 185.978 26.75 185.978 27.0199V31H184.435ZM196.969 31.1321C196.554 31.1321 196.18 31.0582 195.848 30.9105C195.518 30.7599 195.257 30.5384 195.064 30.2457C194.873 29.9531 194.778 29.5923 194.778 29.1634C194.778 28.794 194.846 28.4886 194.983 28.2472C195.119 28.0057 195.305 27.8125 195.541 27.6676C195.777 27.5227 196.042 27.4134 196.338 27.3395C196.636 27.2628 196.944 27.2074 197.263 27.1733C197.646 27.1335 197.957 27.098 198.196 27.0668C198.434 27.0327 198.608 26.9815 198.716 26.9134C198.827 26.8423 198.882 26.733 198.882 26.5852V26.5597C198.882 26.2386 198.787 25.9901 198.596 25.8139C198.406 25.6378 198.132 25.5497 197.774 25.5497C197.396 25.5497 197.096 25.6321 196.875 25.7969C196.656 25.9616 196.508 26.1562 196.432 26.3807L194.991 26.1761C195.105 25.7784 195.292 25.446 195.554 25.179C195.815 24.9091 196.135 24.7074 196.513 24.5739C196.89 24.4375 197.308 24.3693 197.765 24.3693C198.081 24.3693 198.395 24.4062 198.707 24.4801C199.02 24.554 199.305 24.6761 199.564 24.8466C199.822 25.0142 200.03 25.2429 200.186 25.5327C200.345 25.8224 200.425 26.1847 200.425 26.6193V31H198.942V30.1009H198.89C198.797 30.2827 198.665 30.4531 198.494 30.6122C198.327 30.7685 198.115 30.8949 197.859 30.9915C197.606 31.0852 197.309 31.1321 196.969 31.1321ZM197.369 29.9986C197.679 29.9986 197.947 29.9375 198.175 29.8153C198.402 29.6903 198.577 29.5256 198.699 29.321C198.824 29.1165 198.886 28.8935 198.886 28.652V27.8807C198.838 27.9205 198.755 27.9574 198.639 27.9915C198.525 28.0256 198.398 28.0554 198.255 28.081C198.113 28.1065 197.973 28.1293 197.834 28.1491C197.694 28.169 197.574 28.1861 197.471 28.2003C197.241 28.2315 197.035 28.2827 196.853 28.3537C196.672 28.4247 196.528 28.5241 196.423 28.652C196.318 28.777 196.265 28.9389 196.265 29.1378C196.265 29.4219 196.369 29.6364 196.577 29.7812C196.784 29.9261 197.048 29.9986 197.369 29.9986ZM205.096 26.6364C205.096 25.571 205.236 24.5923 205.518 23.7003C205.802 22.8054 206.224 21.9787 206.783 21.2202H208.236C208.02 21.5014 207.819 21.8466 207.631 22.2557C207.444 22.6619 207.28 23.108 207.141 23.5938C207.005 24.0767 206.897 24.5781 206.817 25.098C206.741 25.6179 206.702 26.1307 206.702 26.6364C206.702 27.3097 206.769 27.9915 206.903 28.6818C207.039 29.3722 207.222 30.0128 207.452 30.6037C207.685 31.1918 207.947 31.6733 208.236 32.0483H206.783C206.224 31.2898 205.802 30.4645 205.518 29.5724C205.236 28.6776 205.096 27.6989 205.096 26.6364ZM212.34 31H209.383V22.2727H212.4C213.267 22.2727 214.011 22.4474 214.633 22.7969C215.258 23.1435 215.738 23.642 216.073 24.2926C216.409 24.9432 216.576 25.7216 216.576 26.6278C216.576 27.5369 216.407 28.3182 216.069 28.9716C215.734 29.625 215.25 30.1264 214.616 30.4759C213.985 30.8253 213.227 31 212.34 31ZM210.964 29.6321H212.264C212.872 29.6321 213.379 29.5213 213.785 29.2997C214.191 29.0753 214.497 28.7415 214.701 28.2983C214.906 27.8523 215.008 27.2955 215.008 26.6278C215.008 25.9602 214.906 25.4062 214.701 24.9659C214.497 24.5227 214.194 24.1918 213.794 23.973C213.396 23.7514 212.902 23.6406 212.311 23.6406H210.964V29.6321ZM219.539 22.2727V31H217.958V22.2727H219.539ZM221.131 31V22.2727H224.404C225.075 22.2727 225.637 22.3977 226.092 22.6477C226.549 22.8977 226.894 23.2415 227.127 23.679C227.363 24.1136 227.481 24.608 227.481 25.1619C227.481 25.7216 227.363 26.2187 227.127 26.6534C226.891 27.0881 226.543 27.4304 226.083 27.6804C225.623 27.9276 225.056 28.0511 224.383 28.0511H222.214V26.7514H224.17C224.562 26.7514 224.883 26.6832 225.133 26.5469C225.383 26.4105 225.567 26.223 225.687 25.9844C225.809 25.7457 225.87 25.4716 225.87 25.1619C225.87 24.8523 225.809 24.5795 225.687 24.3438C225.567 24.108 225.381 23.9247 225.128 23.794C224.878 23.6605 224.556 23.5938 224.161 23.5938H222.712V31H221.131ZM234.581 25.0597C234.51 24.8295 234.412 24.6236 234.287 24.4418C234.164 24.2571 234.017 24.0994 233.843 23.9688C233.673 23.8381 233.477 23.7401 233.255 23.6747C233.034 23.6065 232.792 23.5724 232.531 23.5724C232.062 23.5724 231.645 23.6903 231.278 23.9261C230.912 24.1619 230.623 24.5085 230.413 24.9659C230.206 25.4205 230.102 25.9744 230.102 26.6278C230.102 27.2869 230.206 27.8452 230.413 28.3026C230.62 28.7599 230.909 29.108 231.278 29.3466C231.647 29.5824 232.076 29.7003 232.565 29.7003C233.008 29.7003 233.392 29.6151 233.716 29.4446C234.042 29.2741 234.294 29.0327 234.47 28.7202C234.646 28.4048 234.734 28.0355 234.734 27.6122L235.092 27.6676H232.723V26.4318H236.264V27.4801C236.264 28.2273 236.105 28.8736 235.787 29.419C235.468 29.9645 235.031 30.3849 234.474 30.6804C233.917 30.973 233.278 31.1193 232.556 31.1193C231.752 31.1193 231.046 30.9389 230.439 30.5781C229.833 30.2145 229.36 29.6989 229.02 29.0312C228.681 28.3608 228.512 27.5653 228.512 26.6449C228.512 25.9403 228.612 25.3111 228.811 24.7571C229.012 24.2031 229.294 23.733 229.654 23.3466C230.015 22.9574 230.439 22.6619 230.924 22.4602C231.41 22.2557 231.939 22.1534 232.51 22.1534C232.993 22.1534 233.443 22.2244 233.86 22.3665C234.278 22.5057 234.649 22.7045 234.973 22.9631C235.299 23.2216 235.568 23.5284 235.778 23.8835C235.988 24.2386 236.126 24.6307 236.191 25.0597H234.581ZM240.357 26.6364C240.357 27.6989 240.215 28.6776 239.931 29.5724C239.65 30.4645 239.229 31.2898 238.67 32.0483H237.217C237.435 31.767 237.637 31.4233 237.822 31.017C238.009 30.6108 238.171 30.1648 238.308 29.679C238.447 29.1932 238.555 28.6903 238.631 28.1705C238.711 27.6506 238.751 27.1392 238.751 26.6364C238.751 25.9631 238.683 25.2812 238.546 24.5909C238.413 23.9006 238.229 23.2599 237.996 22.669C237.766 22.0781 237.506 21.5952 237.217 21.2202H238.67C239.229 21.9787 239.65 22.8054 239.931 23.7003C240.215 24.5923 240.357 25.571 240.357 26.6364Z" fill="#1D2130"/>
<path d="M16.5 3.5C12.5 -0.5 8.5 0.500005 4.5 2.49999L5.5 6.5C10 3.5 11.5 4 15 6.99998L16.5 3.5Z" fill="#3E4560"/>
<path d="M18.5 30.5L14.5 36.5L9.50001 27L13.5 21L18.5 30.5Z" fill="#1D2130"/>
<path d="M4.50001 2.5C-0.999985 9 3.33334 17.6667 6.50001 21L10 16C7.20002 12.4 5.16668 5.5 4.50001 2.5Z" fill="#1D2130"/>
<path d="M16.5 3.5C12.9 11.5 4.33333 24.5 0.5 30L4 36C12.5 23 16 17 18.5 12C20.5 8 18 4.66667 16.5 3.5Z" fill="#5D6581"/>
</svg>
