<svg width="15" height="18" viewBox="0 0 15 18" fill="none" xmlns="http://www.w3.org/2000/svg">
<path d="M14.0909 7.54545C14.0909 12.6364 7.54545 17 7.54545 17C7.54545 17 1 12.6364 1 7.54545C1 5.80949 1.68961 4.14463 2.91712 2.91712C4.14463 1.68961 5.80949 1 7.54545 1C9.28142 1 10.9463 1.68961 12.1738 2.91712C13.4013 4.14463 14.0909 5.80949 14.0909 7.54545Z" stroke="#70C174" stroke-width="1.5" stroke-linecap="round" stroke-linejoin="round"/>
<path d="M7.54803 9.72789C8.75301 9.72789 9.72985 8.75106 9.72985 7.54608C9.72985 6.34109 8.75301 5.36426 7.54803 5.36426C6.34304 5.36426 5.36621 6.34109 5.36621 7.54608C5.36621 8.75106 6.34304 9.72789 7.54803 9.72789Z" stroke="#70C174" stroke-width="1.5" stroke-linecap="round" stroke-linejoin="round"/>
</svg>
