<svg width="187" height="40" viewBox="0 0 187 40" fill="none" xmlns="http://www.w3.org/2000/svg">
<path d="M13.5674 18.7703V12.2027L19.4052 17.3108L31.8106 6V33H27.4322V16.5811L19.4052 23.8784L13.5674 18.7703Z" fill="#1D2130" stroke="#1D2130"/>
<path d="M33.6353 6.72973H49.3244L46.7704 11.1081H33.6353V6.72973Z" fill="#1D2130"/>
<path d="M33.6353 15.4865H44.2163L42.0271 19.5H33.6353V15.4865Z" fill="#1D2130"/>
<path d="M33.6353 6.72973H49.3244L46.7704 11.1081H33.6353V6.72973Z" stroke="#1D2130"/>
<path d="M33.6353 15.4865H44.2163L42.0271 19.5H33.6353V15.4865Z" stroke="#1D2130"/>
<path d="M7 7.0946L11.3784 10.7432V28.9865H22.6892V33H7V7.0946Z" fill="#1D2130" stroke="#1D2130"/>
<path d="M53.63 8.696H60.574V10.656H58.068V19H56.038V10.656H53.63V8.696ZM62.2111 19V7.954H64.1291V14.114L64.1151 13.876C64.3298 13.4933 64.6331 13.1853 65.0251 12.952C65.4171 12.7093 65.8978 12.588 66.4671 12.588C67.0458 12.588 67.5265 12.7607 67.9091 13.106C68.3011 13.442 68.5018 13.8807 68.5111 14.422V19H66.5511V15.15C66.5418 14.8793 66.4671 14.6647 66.3271 14.506C66.1965 14.338 65.9725 14.254 65.6551 14.254C65.3565 14.254 65.0951 14.352 64.8711 14.548C64.6471 14.744 64.4745 15.01 64.3531 15.346C64.2318 15.682 64.1711 16.0693 64.1711 16.508V19H62.2111ZM73.5336 19.168C72.787 19.168 72.1523 19.028 71.6296 18.748C71.1163 18.468 70.7243 18.0807 70.4536 17.586C70.183 17.0913 70.0476 16.522 70.0476 15.878C70.0476 15.262 70.2063 14.7067 70.5236 14.212C70.841 13.7173 71.2656 13.3253 71.7976 13.036C72.3296 12.7373 72.9223 12.588 73.5756 12.588C74.453 12.588 75.1716 12.8447 75.7316 13.358C76.301 13.862 76.6696 14.5947 76.8376 15.556L72.0776 17.068L71.6436 16.004L75.0876 14.842L74.6816 15.024C74.607 14.7813 74.4716 14.5713 74.2756 14.394C74.089 14.2073 73.8043 14.114 73.4216 14.114C73.1323 14.114 72.8756 14.184 72.6516 14.324C72.437 14.4547 72.269 14.646 72.1476 14.898C72.0356 15.1407 71.9796 15.43 71.9796 15.766C71.9796 16.1487 72.0496 16.4707 72.1896 16.732C72.3296 16.984 72.521 17.1753 72.7636 17.306C73.0063 17.4367 73.277 17.502 73.5756 17.502C73.7903 17.502 73.9956 17.4647 74.1916 17.39C74.397 17.3153 74.5976 17.2173 74.7936 17.096L75.6616 18.552C75.335 18.7387 74.9803 18.888 74.5976 19C74.2243 19.112 73.8696 19.168 73.5336 19.168ZM83.1366 8.696H85.1666V17.04H90.0106V19H83.1366V8.696ZM94.7934 19.168C94.0467 19.168 93.4121 19.028 92.8894 18.748C92.3761 18.468 91.9841 18.0807 91.7134 17.586C91.4427 17.0913 91.3074 16.522 91.3074 15.878C91.3074 15.262 91.4661 14.7067 91.7834 14.212C92.1007 13.7173 92.5254 13.3253 93.0574 13.036C93.5894 12.7373 94.1821 12.588 94.8354 12.588C95.7127 12.588 96.4314 12.8447 96.9914 13.358C97.5607 13.862 97.9294 14.5947 98.0974 15.556L93.3374 17.068L92.9034 16.004L96.3474 14.842L95.9414 15.024C95.8667 14.7813 95.7314 14.5713 95.5354 14.394C95.3487 14.2073 95.0641 14.114 94.6814 14.114C94.3921 14.114 94.1354 14.184 93.9114 14.324C93.6967 14.4547 93.5287 14.646 93.4074 14.898C93.2954 15.1407 93.2394 15.43 93.2394 15.766C93.2394 16.1487 93.3094 16.4707 93.4494 16.732C93.5894 16.984 93.7807 17.1753 94.0234 17.306C94.2661 17.4367 94.5367 17.502 94.8354 17.502C95.0501 17.502 95.2554 17.4647 95.4514 17.39C95.6567 17.3153 95.8574 17.2173 96.0534 17.096L96.9214 18.552C96.5947 18.7387 96.2401 18.888 95.8574 19C95.4841 19.112 95.1294 19.168 94.7934 19.168ZM101.3 12.882L101.454 13.974L101.426 13.876C101.64 13.4933 101.944 13.1853 102.336 12.952C102.728 12.7093 103.208 12.588 103.778 12.588C104.356 12.588 104.837 12.7607 105.22 13.106C105.612 13.442 105.812 13.8807 105.822 14.422V19H103.862V15.15C103.852 14.8793 103.778 14.6647 103.638 14.506C103.507 14.338 103.283 14.254 102.966 14.254C102.667 14.254 102.406 14.352 102.182 14.548C101.958 14.744 101.785 15.01 101.664 15.346C101.542 15.682 101.482 16.0693 101.482 16.508V19H99.5217V12.882H101.3ZM109.612 12.882L109.766 13.974L109.738 13.876C109.953 13.4933 110.256 13.1853 110.648 12.952C111.04 12.7093 111.521 12.588 112.09 12.588C112.669 12.588 113.15 12.7607 113.532 13.106C113.924 13.442 114.125 13.8807 114.134 14.422V19H112.174V15.15C112.165 14.8793 112.09 14.6647 111.95 14.506C111.82 14.338 111.596 14.254 111.278 14.254C110.98 14.254 110.718 14.352 110.494 14.548C110.27 14.744 110.098 15.01 109.976 15.346C109.855 15.682 109.794 16.0693 109.794 16.508V19H107.834V12.882H109.612ZM116.363 21.94L120.437 12.882H122.201L118.253 21.94H116.363ZM118.001 19.028L115.005 12.882H117.203L119.513 18.048L118.001 19.028ZM128.226 19V8.276H128.24L133.966 16.396L133.098 16.2L138.81 8.276H138.838V19H136.808V12.854L136.934 13.904L133.448 18.86H133.42L129.836 13.904L130.186 12.938V19H128.226ZM143.756 19.168C143.187 19.168 142.669 19.056 142.202 18.832C141.745 18.5987 141.381 18.244 141.11 17.768C140.839 17.292 140.704 16.6853 140.704 15.948C140.704 15.2573 140.844 14.66 141.124 14.156C141.404 13.652 141.773 13.2647 142.23 12.994C142.687 12.714 143.173 12.574 143.686 12.574C144.293 12.574 144.75 12.6767 145.058 12.882C145.375 13.078 145.637 13.2973 145.842 13.54L145.758 13.778L145.94 12.882H147.76V19H145.8V17.67L145.954 18.09C145.935 18.09 145.879 18.146 145.786 18.258C145.693 18.3607 145.553 18.4867 145.366 18.636C145.189 18.776 144.965 18.8973 144.694 19C144.433 19.112 144.12 19.168 143.756 19.168ZM144.316 17.572C144.549 17.572 144.759 17.5393 144.946 17.474C145.133 17.3993 145.296 17.2967 145.436 17.166C145.576 17.026 145.697 16.8533 145.8 16.648V15.15C145.725 14.9447 145.613 14.772 145.464 14.632C145.315 14.4827 145.137 14.3707 144.932 14.296C144.727 14.212 144.498 14.17 144.246 14.17C143.966 14.17 143.705 14.2447 143.462 14.394C143.229 14.534 143.042 14.73 142.902 14.982C142.762 15.234 142.692 15.5233 142.692 15.85C142.692 16.1767 142.767 16.4707 142.916 16.732C143.065 16.9933 143.261 17.1987 143.504 17.348C143.756 17.4973 144.027 17.572 144.316 17.572ZM151.543 12.882L151.725 14.562L151.683 14.31C151.861 13.946 152.103 13.638 152.411 13.386C152.719 13.1247 153.023 12.924 153.321 12.784C153.629 12.644 153.863 12.574 154.021 12.574L153.923 14.534C153.466 14.478 153.074 14.5527 152.747 14.758C152.421 14.9633 152.169 15.234 151.991 15.57C151.814 15.906 151.725 16.2513 151.725 16.606V19H149.779V12.882H151.543ZM156.096 10.194H158.056V12.854H159.54V14.38H158.056V19H156.096V14.38H155.144V12.854H156.096V10.194ZM164.041 19.168C163.295 19.168 162.66 19.028 162.137 18.748C161.624 18.468 161.232 18.0807 160.961 17.586C160.691 17.0913 160.555 16.522 160.555 15.878C160.555 15.262 160.714 14.7067 161.031 14.212C161.349 13.7173 161.773 13.3253 162.305 13.036C162.837 12.7373 163.43 12.588 164.083 12.588C164.961 12.588 165.679 12.8447 166.239 13.358C166.809 13.862 167.177 14.5947 167.345 15.556L162.585 17.068L162.151 16.004L165.595 14.842L165.189 15.024C165.115 14.7813 164.979 14.5713 164.783 14.394C164.597 14.2073 164.312 14.114 163.929 14.114C163.64 14.114 163.383 14.184 163.159 14.324C162.945 14.4547 162.777 14.646 162.655 14.898C162.543 15.1407 162.487 15.43 162.487 15.766C162.487 16.1487 162.557 16.4707 162.697 16.732C162.837 16.984 163.029 17.1753 163.271 17.306C163.514 17.4367 163.785 17.502 164.083 17.502C164.298 17.502 164.503 17.4647 164.699 17.39C164.905 17.3153 165.105 17.2173 165.301 17.096L166.169 18.552C165.843 18.7387 165.488 18.888 165.105 19C164.732 19.112 164.377 19.168 164.041 19.168ZM168.77 7.954H170.73V19H168.77V7.954ZM172.748 7.954H174.708V19H172.748V7.954ZM176.727 12.882H178.687V19H176.727V12.882ZM176.685 10.712C176.685 10.4227 176.797 10.1847 177.021 9.998C177.254 9.81133 177.501 9.718 177.763 9.718C178.024 9.718 178.262 9.81133 178.477 9.998C178.701 10.1847 178.813 10.4227 178.813 10.712C178.813 11.0013 178.701 11.2393 178.477 11.426C178.262 11.6033 178.024 11.692 177.763 11.692C177.501 11.692 177.254 11.6033 177.021 11.426C176.797 11.2393 176.685 11.0013 176.685 10.712ZM54.33 22.696H60.77V24.656H56.36V26.994H60.182V28.954H56.36V33H54.33V22.696ZM61.366 29.864C61.366 29.2387 61.5107 28.6787 61.8 28.184C62.0987 27.6893 62.514 27.302 63.046 27.022C63.578 26.7327 64.1893 26.588 64.88 26.588C65.58 26.588 66.1867 26.7327 66.7 27.022C67.2133 27.302 67.6053 27.6893 67.876 28.184C68.156 28.6787 68.296 29.2387 68.296 29.864C68.296 30.4893 68.156 31.054 67.876 31.558C67.6053 32.0527 67.2133 32.4447 66.7 32.734C66.1867 33.0233 65.5707 33.168 64.852 33.168C64.18 33.168 63.578 33.0373 63.046 32.776C62.5233 32.5147 62.1127 32.1367 61.814 31.642C61.5153 31.1473 61.366 30.5547 61.366 29.864ZM63.34 29.878C63.34 30.1953 63.4053 30.4847 63.536 30.746C63.6667 30.998 63.844 31.1987 64.068 31.348C64.292 31.4973 64.544 31.572 64.824 31.572C65.132 31.572 65.398 31.4973 65.622 31.348C65.846 31.1987 66.0187 30.998 66.14 30.746C66.2613 30.4847 66.322 30.1953 66.322 29.878C66.322 29.5513 66.2613 29.262 66.14 29.01C66.0187 28.758 65.846 28.5573 65.622 28.408C65.398 28.2587 65.132 28.184 64.824 28.184C64.544 28.184 64.292 28.2587 64.068 28.408C63.844 28.5573 63.6667 28.758 63.536 29.01C63.4053 29.262 63.34 29.5513 63.34 29.878ZM71.814 33.294C71.2634 33.294 70.8014 33.126 70.428 32.79C70.0547 32.4447 69.8587 32.0013 69.84 31.46V26.882H71.8V30.732C71.8187 31.0027 71.8887 31.222 72.01 31.39C72.1314 31.5487 72.3367 31.628 72.626 31.628C72.9154 31.628 73.1627 31.53 73.368 31.334C73.5827 31.138 73.746 30.872 73.858 30.536C73.9794 30.1907 74.04 29.8033 74.04 29.374V26.882H76V33H74.222L74.068 31.88L74.096 32.006C73.956 32.258 73.7787 32.482 73.564 32.678C73.3494 32.874 73.0927 33.0233 72.794 33.126C72.5047 33.238 72.178 33.294 71.814 33.294ZM79.7938 26.882L79.9478 27.974L79.9198 27.876C80.1345 27.4933 80.4378 27.1853 80.8298 26.952C81.2218 26.7093 81.7025 26.588 82.2718 26.588C82.8505 26.588 83.3311 26.7607 83.7138 27.106C84.1058 27.442 84.3065 27.8807 84.3158 28.422V33H82.3558V29.15C82.3465 28.8793 82.2718 28.6647 82.1318 28.506C82.0011 28.338 81.7771 28.254 81.4598 28.254C81.1611 28.254 80.8998 28.352 80.6758 28.548C80.4518 28.744 80.2791 29.01 80.1578 29.346C80.0365 29.682 79.9758 30.0693 79.9758 30.508V33H78.0158V26.882H79.7938ZM88.8203 33.168C88.251 33.168 87.7423 33.0373 87.2943 32.776C86.8463 32.5053 86.4916 32.118 86.2303 31.614C85.9783 31.11 85.8523 30.5127 85.8523 29.822C85.8523 29.1313 85.9923 28.5433 86.2723 28.058C86.5523 27.5727 86.935 27.204 87.4203 26.952C87.9056 26.7 88.4563 26.574 89.0723 26.574C89.4643 26.574 89.8376 26.6347 90.1923 26.756C90.5563 26.8773 90.8596 27.064 91.1023 27.316V27.932V21.954H93.0483V33H91.0883V31.81L91.2423 32.23C90.925 32.4913 90.5703 32.7153 90.1783 32.902C89.7863 33.0793 89.3336 33.168 88.8203 33.168ZM89.4643 31.516C89.7256 31.516 89.9543 31.4833 90.1503 31.418C90.3556 31.3433 90.533 31.2407 90.6823 31.11C90.841 30.97 90.9763 30.7973 91.0883 30.592V29.094C91.0136 28.8887 90.897 28.716 90.7383 28.576C90.589 28.4267 90.4023 28.3147 90.1783 28.24C89.9636 28.156 89.7256 28.114 89.4643 28.114C89.175 28.114 88.9043 28.1887 88.6523 28.338C88.4096 28.478 88.2136 28.674 88.0643 28.926C87.915 29.178 87.8403 29.4673 87.8403 29.794C87.8403 30.1207 87.915 30.4147 88.0643 30.676C88.2136 30.9373 88.4096 31.1427 88.6523 31.292C88.9043 31.4413 89.175 31.516 89.4643 31.516ZM97.6406 33.168C97.0713 33.168 96.5533 33.056 96.0866 32.832C95.6293 32.5987 95.2653 32.244 94.9946 31.768C94.724 31.292 94.5886 30.6853 94.5886 29.948C94.5886 29.2573 94.7286 28.66 95.0086 28.156C95.2886 27.652 95.6573 27.2647 96.1146 26.994C96.572 26.714 97.0573 26.574 97.5706 26.574C98.1773 26.574 98.6346 26.6767 98.9426 26.882C99.26 27.078 99.5213 27.2973 99.7266 27.54L99.6426 27.778L99.8246 26.882H101.645V33H99.6846V31.67L99.8386 32.09C99.82 32.09 99.764 32.146 99.6706 32.258C99.5773 32.3607 99.4373 32.4867 99.2506 32.636C99.0733 32.776 98.8493 32.8973 98.5786 33C98.3173 33.112 98.0046 33.168 97.6406 33.168ZM98.2006 31.572C98.434 31.572 98.644 31.5393 98.8306 31.474C99.0173 31.3993 99.1806 31.2967 99.3206 31.166C99.4606 31.026 99.582 30.8533 99.6846 30.648V29.15C99.61 28.9447 99.498 28.772 99.3486 28.632C99.1993 28.4827 99.022 28.3707 98.8166 28.296C98.6113 28.212 98.3826 28.17 98.1306 28.17C97.8506 28.17 97.5893 28.2447 97.3466 28.394C97.1133 28.534 96.9266 28.73 96.7866 28.982C96.6466 29.234 96.5766 29.5233 96.5766 29.85C96.5766 30.1767 96.6513 30.4707 96.8006 30.732C96.95 30.9933 97.146 31.1987 97.3886 31.348C97.6406 31.4973 97.9113 31.572 98.2006 31.572ZM104.238 24.194H106.198V26.854H107.682V28.38H106.198V33H104.238V28.38H103.286V26.854H104.238V24.194ZM109.174 26.882H111.134V33H109.174V26.882ZM109.132 24.712C109.132 24.4227 109.244 24.1847 109.468 23.998C109.701 23.8113 109.949 23.718 110.21 23.718C110.471 23.718 110.709 23.8113 110.924 23.998C111.148 24.1847 111.26 24.4227 111.26 24.712C111.26 25.0013 111.148 25.2393 110.924 25.426C110.709 25.6033 110.471 25.692 110.21 25.692C109.949 25.692 109.701 25.6033 109.468 25.426C109.244 25.2393 109.132 25.0013 109.132 24.712ZM112.677 29.864C112.677 29.2387 112.821 28.6787 113.111 28.184C113.409 27.6893 113.825 27.302 114.357 27.022C114.889 26.7327 115.5 26.588 116.191 26.588C116.891 26.588 117.497 26.7327 118.011 27.022C118.524 27.302 118.916 27.6893 119.187 28.184C119.467 28.6787 119.607 29.2387 119.607 29.864C119.607 30.4893 119.467 31.054 119.187 31.558C118.916 32.0527 118.524 32.4447 118.011 32.734C117.497 33.0233 116.881 33.168 116.163 33.168C115.491 33.168 114.889 33.0373 114.357 32.776C113.834 32.5147 113.423 32.1367 113.125 31.642C112.826 31.1473 112.677 30.5547 112.677 29.864ZM114.651 29.878C114.651 30.1953 114.716 30.4847 114.847 30.746C114.977 30.998 115.155 31.1987 115.379 31.348C115.603 31.4973 115.855 31.572 116.135 31.572C116.443 31.572 116.709 31.4973 116.933 31.348C117.157 31.1987 117.329 30.998 117.451 30.746C117.572 30.4847 117.633 30.1953 117.633 29.878C117.633 29.5513 117.572 29.262 117.451 29.01C117.329 28.758 117.157 28.5573 116.933 28.408C116.709 28.2587 116.443 28.184 116.135 28.184C115.855 28.184 115.603 28.2587 115.379 28.408C115.155 28.5573 114.977 28.758 114.847 29.01C114.716 29.262 114.651 29.5513 114.651 29.878ZM122.929 26.882L123.083 27.974L123.055 27.876C123.269 27.4933 123.573 27.1853 123.965 26.952C124.357 26.7093 124.837 26.588 125.407 26.588C125.985 26.588 126.466 26.7607 126.849 27.106C127.241 27.442 127.441 27.8807 127.451 28.422V33H125.491V29.15C125.481 28.8793 125.407 28.6647 125.267 28.506C125.136 28.338 124.912 28.254 124.595 28.254C124.296 28.254 124.035 28.352 123.811 28.548C123.587 28.744 123.414 29.01 123.293 29.346C123.171 29.682 123.111 30.0693 123.111 30.508V33H121.151V26.882H122.929Z" fill="#1D2130"/>
</svg>
