<svg width="24" height="24" viewBox="0 0 24 24" fill="none" xmlns="http://www.w3.org/2000/svg">
<path d="M12 0C15.1826 0 18.2348 1.26428 20.4853 3.51472C22.7357 5.76516 24 8.8174 24 12C24 15.1826 22.7357 18.2348 20.4853 20.4853C18.2348 22.7357 15.1826 24 12 24V24C8.8174 24 5.76516 22.7357 3.51472 20.4853C1.26428 18.2348 0 15.1826 0 12V12C0 8.8174 1.26428 5.76516 3.51472 3.51472C5.76516 1.26428 8.8174 0 12 0V0Z" fill="white"/>
<path d="M9 12.5822V11.2665C9 9.11989 9 8.04656 9.6933 7.63801C10.3866 7.22946 11.3132 7.75919 13.1698 8.8152L14.2598 9.43496C16.073 10.4737 16.9797 10.9792 16.9997 11.779C17.0197 12.5788 16.1397 13.1396 14.3831 14.2649L13.2965 14.9574C11.3966 16.1692 10.4499 16.7786 9.7233 16.3769C8.99667 15.9753 9 14.8466 9 12.5822Z" fill="#1D2130"/>
</svg>
